<svg width="330" height="184" viewBox="0 0 330 184" fill="none" xmlns="http://www.w3.org/2000/svg">
<g clip-path="url(#clip0_183_1135)">
<path fill-rule="evenodd" clip-rule="evenodd" d="M64.1882 82.4432C64.3896 82.1659 64.7239 82 65.0813 82H66.0674C66.5127 82 66.9124 82.2564 67.0745 82.646L73.5416 98.1894C73.7869 98.8039 74.2648 99.0906 74.8128 99.0906C75.1263 99.0906 75.3135 99.0244 75.4689 98.9168C75.6433 98.7961 75.8586 98.5657 76.1069 98.1091L81.9999 83.734C82.3943 82.711 83.3302 82 84.4924 82C85.6545 82 86.5905 82.711 86.9849 83.734L92.8779 98.1091C93.1261 98.5657 93.3414 98.7961 93.5158 98.9168C93.6712 99.0244 93.8585 99.0906 94.172 99.0906C94.72 99.0906 95.1979 98.8039 95.4432 98.1894L95.4485 98.1762L101.91 82.646C102.072 82.2564 102.472 82 102.917 82H103.929C104.287 82 104.622 82.1661 104.823 82.4438C105.024 82.7214 105.067 83.0746 104.936 83.3873L98.326 99.192C98.027 99.9906 97.4949 100.691 96.773 101.183C96.0125 101.752 95.0972 102 94.172 102C93.2212 102 92.3784 101.739 91.6491 101.25C91.6272 101.235 91.606 101.22 91.5854 101.204C90.9894 100.737 90.486 100.133 90.0648 99.3417C90.0191 99.2559 89.9868 99.1647 89.9684 99.0709L84.4927 85.7135L79.0042 99.1247C78.985 99.1996 78.9568 99.2724 78.9199 99.3417C78.4987 100.133 77.9953 100.737 77.3994 101.204C77.3788 101.22 77.3575 101.235 77.3357 101.25C76.6063 101.739 75.7636 102 74.8128 102C73.8876 102 72.9722 101.752 72.2117 101.183C71.4896 100.691 70.9574 99.9902 70.6585 99.1913L64.0744 83.3861C63.9441 83.0734 63.9867 82.7205 64.1882 82.4432Z" fill="#DFDFDF"/>
<path fill-rule="evenodd" clip-rule="evenodd" d="M184.918 83.0208C184.918 82.457 185.427 82 186.055 82H187.147C187.514 82 187.858 82.1585 188.071 82.4257L198.447 95.4061L208.823 82.4257C209.037 82.1585 209.381 82 209.747 82H210.839C211.467 82 211.977 82.457 211.977 83.0208V100.979C211.977 101.543 211.467 102 210.839 102H209.857C209.229 102 208.719 101.543 208.719 100.979V87.5618L199.753 98.7575C199.539 99.0244 199.195 99.1825 198.829 99.1825H198.038C197.671 99.1825 197.327 99.0239 197.114 98.7566L188.175 87.5682V100.979C188.175 101.543 187.666 102 187.038 102H186.055C185.427 102 184.918 101.543 184.918 100.979V83.0208Z" fill="#DFDFDF"/>
<path fill-rule="evenodd" clip-rule="evenodd" d="M217.473 86.0343C217.473 83.81 219.381 82 221.726 82H235.838C236.436 82 236.921 82.457 236.921 83.0208V83.8783C236.921 84.4421 236.436 84.8991 235.838 84.8991H221.726C221.093 84.8991 220.548 85.4069 220.548 86.0343V90.5504C220.548 90.5504 220.885 90.5504 221.076 90.5504H234.851C235.449 90.5504 235.933 91.0075 235.933 91.5713V92.4532C235.933 93.017 235.449 93.4741 234.851 93.4741H221.076C220.885 93.4741 220.548 93.4741 220.548 93.4741V97.9657C220.548 98.5779 221.077 99.0764 221.726 99.0764H235.838C236.436 99.0764 236.921 99.5334 236.921 100.097V100.979C236.921 101.543 236.436 102 235.838 102H221.726C219.381 102 217.473 100.19 217.473 97.9657V86.0343Z" fill="#DFDFDF"/>
<path fill-rule="evenodd" clip-rule="evenodd" d="M242.418 83.0196C242.418 82.4565 242.922 82 243.543 82H258.641C261.138 82 263.143 83.8619 263.143 86.1028V91.0212C263.143 93.0627 261.485 94.755 259.323 95.053L263.753 100.366C264.01 100.675 264.053 101.089 263.862 101.435C263.672 101.781 263.282 102 262.855 102H261.639C261.287 102 260.954 101.85 260.741 101.595L255.326 95.0995H246.163C245.975 95.0995 245.641 95.0995 245.641 95.0995V100.956C245.641 101.519 245.137 101.976 244.516 101.976H243.543C242.922 101.976 242.418 101.519 242.418 100.956V83.0196ZM245.641 92.1794C245.641 92.1794 245.975 92.1794 246.163 92.1794H258.641C259.379 92.1794 259.947 91.6497 259.947 91.0212V86.1028C259.947 85.4424 259.37 84.9201 258.641 84.9201H245.641V92.1794Z" fill="#DFDFDF"/>
<path fill-rule="evenodd" clip-rule="evenodd" d="M140.102 83.0208C140.102 82.457 140.583 82 141.177 82H142.106C142.7 82 143.181 82.457 143.181 83.0208V98.5047C143.181 98.8027 143.452 99.0764 143.809 99.0764H155.938C156.532 99.0764 157.013 99.5334 157.013 100.097V100.979C157.013 101.543 156.532 102 155.938 102H143.809C141.777 102 140.102 100.422 140.102 98.5047V83.0208Z" fill="#DFDFDF"/>
<path fill-rule="evenodd" clip-rule="evenodd" d="M162.512 83.0208C162.512 82.457 162.993 82 163.587 82H164.516C165.11 82 165.591 82.457 165.591 83.0208V98.5047C165.591 98.8027 165.863 99.0764 166.219 99.0764H178.348C178.942 99.0764 179.423 99.5334 179.423 100.097V100.979C179.423 101.543 178.942 102 178.348 102H166.219C164.187 102 162.512 100.422 162.512 98.5047V83.0208Z" fill="#DFDFDF"/>
<path fill-rule="evenodd" clip-rule="evenodd" d="M110.508 87.6933C110.508 84.5679 113.168 82 116.47 82H128.644C131.946 82 134.607 84.5679 134.607 87.6933V96.3312C134.607 99.4636 131.939 102 128.644 102H116.47C113.176 102 110.508 99.4636 110.508 96.3312V87.6933ZM116.47 84.9201C114.875 84.9201 113.553 86.1765 113.553 87.6933V96.3312C113.553 97.8394 114.866 99.0799 116.47 99.0799H128.644C130.249 99.0799 131.561 97.8394 131.561 96.3312V87.6933C131.561 86.1765 130.24 84.9201 128.644 84.9201H116.47Z" fill="#DFDFDF"/>
</g>
<defs>
<clipPath id="clip0_183_1135">
<rect x="64" y="82" width="202" height="20" fill="white"/>
</clipPath>
</defs>
</svg>
