<svg width="330" height="184" viewBox="0 0 330 184" fill="none" xmlns="http://www.w3.org/2000/svg">
<g clip-path="url(#clip0_183_1126)">
<path d="M213.791 99.4862V84.5087H226.942V78.6641H210.969C210.22 78.6643 209.502 78.9724 208.973 79.5204C208.443 80.0684 208.145 80.8114 208.145 81.5864V102.408C208.145 103.183 208.443 103.926 208.973 104.474C209.502 105.022 210.22 105.33 210.969 105.33H227.296V99.4855L213.791 99.4862ZM224.308 88.7768H216.214V94.33H224.308V88.7768Z" fill="#DFDFDF"/>
<path d="M182.504 84.5079H203.04V78.6641H182.504V84.5079ZM189.771 105.329H195.419V87.0145H189.771V105.329Z" fill="#DFDFDF"/>
<path d="M168.978 106.001C162.033 106.001 156.383 99.7198 156.383 92.0008C156.383 84.2817 162.033 78 168.978 78C171.286 78.0361 173.539 78.7335 175.487 80.0144C177.436 81.2952 179.003 83.1096 180.015 85.2563L175.033 87.8944C174.488 86.6989 173.633 85.6826 172.565 84.9583C171.496 84.2341 170.254 83.83 168.977 83.7907C165.116 83.7907 161.98 87.472 161.98 92C161.98 96.528 165.118 100.209 168.977 100.209C170.272 100.169 171.531 99.7547 172.61 99.0119C173.689 98.269 174.545 97.2277 175.08 96.0066L180.095 98.5782C179.101 100.769 177.531 102.626 175.565 103.939C173.599 105.251 171.317 105.966 168.978 106.001Z" fill="#DFDFDF"/>
<path d="M138.511 96.1027C138.966 96.1025 139.415 95.9881 139.819 95.77C140.222 95.5518 140.569 95.236 140.829 94.8494C141.089 94.4628 141.255 94.0171 141.313 93.5498C141.371 93.0826 141.318 92.6077 141.161 92.1657L136.334 78.6656H130.312L135.863 94.1939C136.063 94.7536 136.425 95.2364 136.898 95.5776C137.371 95.9188 137.934 96.1021 138.511 96.1027ZM147.677 78.6656L142.954 94.579C141.96 97.9275 140.007 99.8496 137.597 99.8496C136.523 99.8497 135.481 99.4646 134.649 98.76L131.176 103.368C132.998 104.878 135.263 105.698 137.597 105.693C142.586 105.693 146.605 102.181 148.354 96.2943L153.586 78.6641L147.677 78.6656Z" fill="#DFDFDF"/>
<path d="M104.426 105.33H110.074V78.6641H104.426V105.33ZM122.79 95.7023C122.093 94.2119 121.089 92.8974 119.849 91.851L124.709 78.6641H118.664L114.787 89.1857C114.158 89.0273 113.516 88.9344 112.869 88.9084L112.497 88.8958V94.7439L112.682 94.7492C113.713 94.8763 114.7 95.2512 115.566 95.8438C116.431 96.4364 117.15 97.2301 117.666 98.1618L120.88 105.33H127.106L122.79 95.7023Z" fill="#DFDFDF"/>
<path d="M94.0361 89.6309C94.3305 88.7716 94.4818 87.8669 94.4836 86.9552C94.4572 84.7329 93.58 82.6121 92.0445 81.0578C90.509 79.5036 88.4405 78.6429 86.2925 78.6645H80.2727C78.8747 78.6661 77.5343 79.2417 76.5458 80.2646C75.5573 81.2875 75.0014 82.674 75 84.1205V105.247H80.6481V84.5076H86.2925C86.9427 84.4851 87.5751 84.7298 88.0513 85.1883C88.5275 85.6468 88.8088 86.2819 88.8338 86.9545C88.8013 87.6242 88.5177 88.2547 88.0431 88.7115C87.5686 89.1682 86.9405 89.4153 86.2925 89.4006H83.0715V94.5867H90.3638C90.6889 94.5626 91.0154 94.608 91.3228 94.7202C91.6302 94.8323 91.9119 95.009 92.1504 95.2388C92.389 95.4685 92.5792 95.7465 92.7093 96.0557C92.8394 96.3649 92.9065 96.6987 92.9065 97.0359C92.9065 97.3731 92.8394 97.7069 92.7093 98.0161C92.5792 98.3253 92.389 98.6032 92.1504 98.833C91.9119 99.0628 91.6302 99.2395 91.3228 99.3516C91.0154 99.4638 90.6889 99.5092 90.3638 99.4851H83.0715V105.245H91.5093C93.4432 104.986 95.2213 104.012 96.5161 102.503C97.8108 100.994 98.5348 99.052 98.5548 97.0344C98.5457 95.4867 98.1176 93.9727 97.3189 92.6641C96.5202 91.3555 95.3829 90.3045 94.0361 89.6309Z" fill="#DFDFDF"/>
<path d="M254.998 87.3981C254.981 85.1034 254.099 82.9062 252.539 81.2747C250.98 79.6432 248.866 78.7065 246.648 78.6641H238.472C237.26 78.6659 236.098 79.1653 235.24 80.0524C234.383 80.9395 233.9 82.142 233.898 83.3965V105.264H239.548V84.5072H246.651C247.376 84.5318 248.062 84.847 248.567 85.386C249.071 85.9251 249.353 86.6458 249.353 87.3958C249.353 88.1459 249.071 88.8666 248.567 89.4056C248.062 89.9446 247.376 90.2598 246.651 90.2845H241.971V96.1283H246.651C248.867 96.0853 250.98 95.1491 252.539 93.5185C254.098 91.8879 254.981 89.6917 254.998 87.3981Z" fill="#DFDFDF"/>
</g>
<defs>
<clipPath id="clip0_183_1126">
<rect width="180" height="28" fill="white" transform="translate(75 78)"/>
</clipPath>
</defs>
</svg>
