<svg width="330" height="184" viewBox="0 0 330 184" fill="none" xmlns="http://www.w3.org/2000/svg">
<path d="M84.3096 79.5312L69.9375 103.764H74.8656C75.8383 102.137 77.2255 100.8 78.8846 99.8895C80.5436 98.9791 82.4147 98.5284 84.3051 98.5838C88.9106 98.5838 92.2572 100.83 93.7446 103.764H98.6727L84.3096 79.5312ZM84.3096 94.4237C82.7716 94.4099 81.2499 94.7414 79.8564 95.3941L84.3364 87.8648L88.7941 95.3941C87.3942 94.732 85.8617 94.4 84.314 94.4237" fill="#DFDFDF"/>
<path d="M119.232 80.7083L109.954 96.3241L100.72 80.7083H95.447L109.81 105.004L124.249 80.7083H119.232Z" fill="#DFDFDF"/>
<path d="M226.068 95.4256L207.61 80.0704V103.764H211.723V88.961L230.181 104.316V80.7083H226.068V95.4256Z" fill="#DFDFDF"/>
<path d="M165.005 84.4415C169.31 84.4415 171.684 86.2699 171.828 88.305H176.33C176.33 84.3741 172.616 80.259 165.278 80.259C157.129 80.259 154.172 83.5295 154.172 87.447C154.172 91.3105 156.806 93.5208 161.474 94.0733C162.679 94.2171 164.127 94.3519 165.403 94.4552C166.483 94.5405 167.504 94.6439 168.177 94.7158C171.102 95.0347 171.877 96.0006 171.877 97.0518C171.877 98.4535 170.063 99.9674 165.291 99.9674C160.753 99.9674 158.679 98.1705 158.509 96.1533H153.97C153.97 100.695 157.966 104.19 165.238 104.19C172.688 104.19 176.415 101.046 176.415 96.9395C176.415 93.2782 174.413 91.1892 168.737 90.5018C167.957 90.4075 166.886 90.3087 165.748 90.2143C164.458 90.111 163.123 90.0077 162.021 89.8594C159.732 89.5449 158.638 88.633 158.638 87.3077C158.638 85.8387 160.43 84.4235 165.005 84.4235" fill="#DFDFDF"/>
<path d="M247.478 80.7083H237.317V103.764H247.478C255.842 103.764 260 99.1454 260 92.1551C260 85.1649 255.645 80.7083 247.478 80.7083ZM247.25 99.5767H241.627V84.8414H247.25C252.796 84.8414 255.61 87.757 255.61 92.2045C255.61 96.8138 252.796 99.5901 247.25 99.5901" fill="#DFDFDF"/>
<path d="M182.396 80.7037V103.759H201.531V99.59H186.706V94.2844H198.928V90.1603H186.706V84.8277H201.531V80.7037H182.396Z" fill="#DFDFDF"/>
<path d="M124.612 92.2494C124.612 99.0779 129.988 104.226 137.076 104.226C144.163 104.226 149.539 99.06 149.539 92.2494C149.539 85.4388 144.163 80.277 137.076 80.277C129.988 80.277 124.612 85.4074 124.612 92.2494ZM137.067 99.9719C132.39 99.9719 129.003 96.7149 129.003 92.2314C129.003 87.6761 132.322 84.4954 137.067 84.4954C141.811 84.4954 145.131 87.6761 145.131 92.2494C145.131 96.7418 141.735 99.9899 137.067 99.9899" fill="#DFDFDF"/>
</svg>
