<svg width="330" height="184" viewBox="0 0 330 184" fill="none" xmlns="http://www.w3.org/2000/svg">
<path fill-rule="evenodd" clip-rule="evenodd" d="M80.8942 78.3984C80.2142 78.3984 79.5242 78.4384 78.8442 78.4784C78.1242 78.5184 77.3842 78.5684 76.6642 78.5684C75.9742 78.5684 75.2742 78.5284 74.5942 78.4884C73.9242 78.4484 73.2442 78.4184 72.5742 78.4184C72.5742 78.4184 72.5742 78.4184 72.5742 78.4284C72.5742 80.7684 72.6642 83.1284 72.7442 85.4784C72.7942 86.8584 72.8342 88.2384 72.8542 89.6284C72.8742 90.6084 72.8842 91.5884 72.9142 92.5684L73.2242 101.768C75.3842 100.078 78.0342 98.7784 80.6442 98.0684L80.5442 92.5884C80.5442 90.2184 80.6342 87.8384 80.7142 85.4784C80.8042 83.1284 80.8942 80.7684 80.8942 78.4284C80.8942 78.4184 80.8942 78.4084 80.8942 78.3984Z" fill="#DFDFDF"/>
<path fill-rule="evenodd" clip-rule="evenodd" d="M92.2255 103.75C92.9955 108.8 96.4355 106.58 96.6055 112.22C102.756 107.45 102.576 98.73 94.1755 98.4C97.3955 97.22 97.5355 94.3 97.2755 90.93C97.0955 88.6 96.0355 78.91 99.0355 76C89.8555 76.21 84.9955 89.89 89.2155 97.65C79.6055 94.8 68.5555 103.69 70.1555 106.97C73.7655 102.47 85.0155 109.65 92.2255 103.75Z" fill="#DFDFDF"/>
<path fill-rule="evenodd" clip-rule="evenodd" d="M90.6458 99.7784C90.6458 99.7784 90.7058 100.498 90.4458 101.098C90.4458 101.098 90.7758 102.118 91.6558 101.248C91.6558 101.248 91.8658 101.058 91.7858 100.388C91.7858 100.388 92.3458 100.948 92.4858 101.228C92.6258 101.528 93.9258 101.708 93.2858 100.548C93.2858 100.548 92.8758 100.058 92.4558 99.8284C92.4558 99.8284 93.0958 100.188 93.4958 100.038C93.8858 99.8884 94.6258 99.2284 93.6558 99.0184C93.6558 99.0184 92.8758 98.9184 92.5958 98.9384C92.3058 98.9584 93.3858 98.8284 93.9958 98.3384C94.5958 97.8584 94.3658 97.6684 94.3258 97.4384C94.2958 97.2184 93.9558 96.9784 93.5658 97.2684C93.1958 97.5684 92.3958 98.3484 92.1958 98.4384C92.1958 98.4384 92.1058 98.2584 92.4258 97.8484C92.7558 97.4484 93.2858 96.7184 92.9958 96.4284C92.7358 96.1484 92.1358 95.9984 91.9558 96.3684C91.7758 96.7484 91.5458 97.7084 91.3458 97.8884C91.3458 97.8884 91.3858 97.3384 90.8058 97.1184C90.2358 96.9084 90.0758 97.5484 90.1458 97.7684C90.2158 97.9784 90.5758 98.4184 90.3958 98.8984C89.5458 99.6884 88.4558 98.9384 88.0558 99.5384C87.8658 99.8184 88.0158 100.528 88.5258 100.468C88.5258 100.468 89.5458 100.158 90.0958 99.9584C90.0958 99.9584 90.5158 99.8684 90.6458 99.7784Z" fill="#DFDFDF"/>
<path fill-rule="evenodd" clip-rule="evenodd" d="M221.206 78.9809C220.706 78.9909 220.206 79.0109 219.716 79.0309C219.126 79.0509 218.526 79.0809 217.936 79.0809C217.296 79.0809 216.656 79.0509 216.016 79.0309C215.486 79.0109 214.956 78.9909 214.426 78.9809C214.426 80.8509 214.506 82.7409 214.586 84.6109C214.666 86.5309 214.746 88.4709 214.756 90.3909L214.786 101.351C215.236 101.351 215.706 101.321 216.156 101.291C216.646 101.251 217.146 101.221 217.636 101.221C218.156 101.221 218.676 101.251 219.186 101.291C219.646 101.321 220.126 101.351 220.596 101.351C220.666 101.281 220.776 101.121 220.816 101.051C222.156 98.9409 223.516 96.8109 224.936 94.7409C225.306 94.2009 225.686 93.6509 226.086 93.1409C226.316 92.8609 226.646 92.4109 227.046 92.4109C227.626 92.4109 227.796 92.9609 227.796 93.4409C227.796 94.7509 227.746 96.0709 227.706 97.3809C227.666 98.6809 227.616 99.9809 227.616 101.281C227.616 101.301 227.616 101.331 227.616 101.351C228.106 101.351 228.596 101.321 229.086 101.291C229.626 101.251 230.176 101.221 230.716 101.221C231.296 101.221 231.886 101.251 232.466 101.291C233.006 101.321 233.556 101.351 234.096 101.351C234.096 99.5609 234.016 97.7509 233.946 95.9609C233.876 94.1309 233.806 92.2909 233.806 90.4609C233.806 88.5509 233.876 86.6309 233.946 84.7309C234.016 82.9009 234.076 81.0609 234.086 79.2309C234.066 79.2309 234.046 79.2309 234.026 79.2309C233.666 79.2309 233.286 79.1909 232.926 79.1609C232.316 79.0909 231.706 79.0209 231.096 78.9409C230.566 78.8809 230.006 78.7509 229.486 78.6509C229.076 78.5709 228.616 78.4809 228.186 78.4609C228.086 78.5909 227.966 78.8009 227.916 78.9009C227.696 79.3009 227.426 79.7109 227.186 80.1009C226.636 80.9909 226.086 81.8709 225.546 82.7509C224.396 84.6109 223.186 86.4509 221.966 88.2609L221.126 89.4709C220.836 86.8809 220.816 85.5109 221.006 82.9309C221.106 81.6709 221.206 80.3609 221.206 79.0909C221.206 79.0609 221.206 79.0209 221.206 78.9809Z" fill="#DFDFDF"/>
<path fill-rule="evenodd" clip-rule="evenodd" d="M202.605 94.0791C202.605 94.9591 201.985 95.4491 201.165 95.6291H201.155C200.655 95.7191 199.975 95.7091 199.475 95.7091C199.005 95.7091 198.455 95.6091 198.205 95.1591V95.1491L198.195 95.1391C198.055 94.8491 198.065 94.2291 198.065 93.9091C198.065 93.6391 198.045 92.9791 198.155 92.7391L198.165 92.7191C198.395 92.2591 198.925 92.1591 199.395 92.1591C200.665 92.1591 202.605 92.4091 202.605 94.0791ZM199.275 83.6691C200.505 83.6691 202.105 83.9691 202.105 85.5091C202.105 86.8991 200.405 87.0791 199.365 87.0791C198.895 87.0791 198.405 86.9391 198.185 86.4791L198.165 86.4591L198.155 86.4291C198.065 86.1491 198.065 85.6391 198.065 85.3491C198.065 85.0791 198.055 84.5291 198.155 84.2691C198.335 83.8091 198.815 83.6691 199.275 83.6691ZM207.565 88.8891C207.615 88.8091 207.655 88.7291 207.695 88.6691C207.865 88.3691 208.035 88.0691 208.205 87.7591C208.605 87.0391 208.995 86.1191 208.995 85.2791C208.995 84.3491 208.815 83.4591 208.465 82.6091C208.155 81.8191 207.695 81.0791 207.025 80.5591C205.475 79.3691 203.435 79.0391 201.535 79.0391H191.675V79.0791C191.735 80.4591 191.795 81.8391 191.835 83.2191C191.915 85.6391 192.005 88.0891 192.005 90.5091C192.005 92.3391 191.905 94.1891 191.825 96.0191C191.735 97.8091 191.645 99.6191 191.645 101.409C192.375 101.409 193.105 101.369 193.835 101.339C194.605 101.309 195.375 101.279 196.145 101.279C197.475 101.279 198.805 101.309 200.135 101.339C201.465 101.379 202.795 101.409 204.115 101.409C205.705 101.409 206.925 100.619 207.895 99.3891C208.975 98.0191 209.485 96.4691 209.485 94.7291C209.485 93.0991 209.135 91.3791 207.835 90.2791C207.595 90.0691 207.305 89.7891 207.285 89.4491L207.565 88.8891Z" fill="#DFDFDF"/>
<path fill-rule="evenodd" clip-rule="evenodd" d="M180.385 90.2113C180.385 91.3713 180.045 92.4213 179.285 93.3113C178.555 94.1713 177.615 94.6513 176.485 94.6513C175.355 94.6513 174.425 94.1613 173.685 93.3113C172.925 92.4213 172.565 91.3813 172.565 90.2113C172.565 89.0413 172.905 87.9712 173.665 87.0712C174.395 86.1912 175.345 85.7212 176.485 85.7212C177.625 85.7212 178.555 86.2112 179.285 87.0712C180.045 87.9712 180.385 89.0413 180.385 90.2113ZM186.815 90.2113C186.815 87.0113 185.875 84.1613 183.775 81.7513C181.835 79.5213 179.455 78.2812 176.485 78.2812C173.515 78.2812 171.125 79.5213 169.195 81.7513C167.085 84.1613 166.145 87.0113 166.145 90.2113C166.145 93.4013 167.085 96.2313 169.185 98.6413C171.125 100.871 173.525 102.091 176.485 102.091C179.455 102.091 181.835 100.861 183.775 98.6413C185.875 96.2313 186.815 93.4013 186.815 90.2113Z" fill="#DFDFDF"/>
<path fill-rule="evenodd" clip-rule="evenodd" d="M147.805 78.7512C147.685 79.8312 147.585 80.9212 147.565 82.0112L147.555 82.0312V82.0512C147.485 82.6912 147.345 83.3912 147.245 84.0212C147.175 84.4012 147.115 84.7813 147.065 85.1713C147.055 85.1813 147.055 85.1912 147.055 85.2013C148.205 85.0912 149.365 84.9713 150.525 84.8813L151.095 84.8313L151.115 85.4113C151.135 86.6413 151.165 87.8813 151.165 89.1213C151.165 91.1812 151.095 93.2513 151.015 95.3113C150.935 97.3313 150.865 99.3612 150.855 101.381C151.425 101.381 152.005 101.351 152.575 101.321C153.185 101.281 153.795 101.251 154.405 101.251C155.045 101.251 155.695 101.291 156.335 101.331C156.905 101.361 157.495 101.401 158.075 101.401C158.075 99.3813 157.995 97.3313 157.915 95.3113C157.845 93.2513 157.765 91.1812 157.765 89.1213C157.765 87.8512 157.795 86.5812 157.825 85.3112L157.835 84.7413L158.405 84.7812C159.355 84.8412 160.305 84.8913 161.245 84.9613C161.435 84.9713 161.625 84.9913 161.805 85.0013C161.795 84.5413 161.735 84.0612 161.685 83.6112C161.625 83.0412 161.545 82.4312 161.545 81.8612C161.545 81.2413 161.585 80.6213 161.625 80.0113C161.655 79.5213 161.685 79.0213 161.695 78.5312C161.555 78.5412 161.405 78.5612 161.275 78.5812C160.825 78.6212 160.385 78.6713 159.935 78.7213C158.925 78.8313 157.915 78.9313 156.895 79.0113C156.265 79.0613 155.615 79.1112 154.975 79.1112C152.605 79.1112 150.165 79.0412 147.805 78.7512Z" fill="#DFDFDF"/>
<path fill-rule="evenodd" clip-rule="evenodd" d="M141.635 87.2691C141.615 87.2691 141.605 87.2791 141.595 87.2791C141.275 87.3191 140.955 87.3491 140.645 87.3891C139.835 87.4791 139.025 87.5291 138.215 87.5291C137.625 87.5291 136.845 87.5591 136.265 87.4691C135.385 87.3491 134.435 86.9591 134.435 85.9291C134.435 85.0391 135.335 84.7591 136.075 84.6791C136.555 84.6391 137.125 84.6691 137.615 84.6691C138.425 84.6691 139.285 84.7591 140.085 84.8591C140.755 84.9391 141.485 85.0191 142.175 85.0291C142.165 84.8091 142.145 84.5791 142.125 84.3591C142.075 83.6791 142.015 82.9991 141.955 82.3191C141.905 81.6491 141.845 80.9691 141.775 80.2991C141.755 80.0491 141.735 79.6991 141.675 79.4591V79.4391C141.615 79.1591 141.525 79.0391 141.225 79.0391C140.055 79.0391 138.885 79.0691 137.715 79.0991C136.545 79.1291 135.365 79.1691 134.195 79.1691C133.035 79.1691 131.875 79.1291 130.725 79.0991C129.645 79.0691 128.565 79.0391 127.495 79.0391V79.0791C127.555 80.4191 127.615 81.7491 127.655 83.0891C127.725 85.4491 127.815 87.8391 127.815 90.2091C127.815 92.0891 127.725 93.9891 127.635 95.8691C127.555 97.7091 127.465 99.5691 127.465 101.409C128.605 101.409 129.745 101.369 130.875 101.339C132.055 101.309 133.225 101.279 134.395 101.279C136.675 101.279 139.085 101.329 141.335 101.679L141.355 101.689C141.455 101.709 141.575 101.729 141.665 101.729C141.665 101.729 141.675 101.729 141.685 101.729C141.855 100.639 142.035 99.5291 142.155 98.4391V98.4191V98.4091C142.245 97.8591 142.345 97.3091 142.445 96.7691C142.525 96.3291 142.615 95.8491 142.625 95.3891C142.165 95.3991 141.695 95.4491 141.245 95.4991C140.695 95.5491 140.115 95.6091 139.565 95.6091C138.525 95.6091 137.455 95.5991 136.415 95.5091C135.955 95.4691 135.125 95.3891 134.775 95.0591L134.765 95.0491L134.755 95.0391C134.505 94.7791 134.435 94.4291 134.435 94.0791C134.435 93.0091 135.405 92.6991 136.305 92.6991C137.535 92.6991 138.785 92.7491 140.005 92.9191C140.335 92.9691 140.655 93.0091 140.985 93.0591C141.025 93.0691 141.075 93.0791 141.125 93.0791C141.135 92.0791 141.225 91.0491 141.315 90.0591C141.335 89.5691 141.435 89.0091 141.505 88.5391C141.555 88.1291 141.625 87.6891 141.635 87.2691Z" fill="#DFDFDF"/>
<path fill-rule="evenodd" clip-rule="evenodd" d="M112.426 91.7003C113.696 91.7003 115.636 91.9503 115.636 93.6103C115.636 94.5003 115.006 94.9903 114.196 95.1703H114.176C113.686 95.2603 113.006 95.2503 112.506 95.2503C112.036 95.2503 111.486 95.1503 111.236 94.7003L111.226 94.6903V94.6803C111.086 94.3903 111.096 93.7703 111.096 93.4503C111.096 93.1803 111.076 92.5203 111.186 92.2803L111.196 92.2603C111.416 91.7903 111.956 91.7003 112.426 91.7003ZM112.306 83.2103C113.536 83.2103 115.136 83.5103 115.136 85.0503C115.136 86.4403 113.426 86.6203 112.396 86.6203C111.916 86.6203 111.426 86.4803 111.206 86.0203L111.196 86.0003L111.186 85.9703C111.086 85.6903 111.096 85.1803 111.096 84.8903C111.096 84.6203 111.086 84.0703 111.176 83.8103C111.366 83.3403 111.836 83.2103 112.306 83.2103ZM104.676 100.95C105.406 100.95 106.136 100.91 106.866 100.88C107.636 100.85 108.406 100.82 109.176 100.82C110.506 100.82 111.836 100.85 113.166 100.88C114.486 100.91 115.816 100.95 117.146 100.95C118.736 100.95 119.956 100.16 120.926 98.9303C122.006 97.5603 122.516 96.0003 122.516 94.2703C122.516 92.6403 122.156 90.9203 120.866 89.8203C120.626 89.6103 120.326 89.3303 120.306 88.9903L120.596 88.4303C120.646 88.3503 120.686 88.2703 120.726 88.2103C120.896 87.9103 121.066 87.6103 121.236 87.3003C121.626 86.5803 122.026 85.6603 122.026 84.8203C122.026 83.8903 121.846 83.0003 121.496 82.1403C121.176 81.3603 120.726 80.6203 120.046 80.1003C118.506 78.9003 116.456 78.5703 114.556 78.5703H104.696L104.706 78.6203C104.766 80.0003 104.816 81.3803 104.866 82.7603C104.936 85.1803 105.026 87.6303 105.026 90.0503C105.026 91.8803 104.936 93.7303 104.846 95.5603C104.766 97.3503 104.676 99.1603 104.676 100.95Z" fill="#DFDFDF"/>
<path fill-rule="evenodd" clip-rule="evenodd" d="M239.785 101.368C240.335 101.368 240.885 101.338 241.425 101.308C242.005 101.268 242.595 101.238 243.175 101.238C243.815 101.238 244.455 101.268 245.095 101.308C245.685 101.338 246.275 101.368 246.865 101.368C246.875 101.348 246.875 101.318 246.875 101.298C246.875 100.178 246.825 99.0484 246.785 97.9284C246.745 96.7984 246.695 95.6584 246.695 94.5284C246.695 93.9784 246.795 93.1484 247.525 93.1484C247.765 93.1484 247.915 93.2784 248.035 93.4584L248.075 93.5184L248.105 93.5784C248.365 94.2984 248.615 95.0184 248.855 95.7384C249.225 96.6184 249.645 97.4884 250.055 98.3584C250.475 99.2484 250.895 100.188 251.205 101.118C251.225 101.208 251.255 101.288 251.295 101.368C252.035 101.368 252.795 101.338 253.545 101.308C254.355 101.268 255.175 101.238 255.985 101.238C256.405 101.238 256.825 101.268 257.245 101.308C257.605 101.338 257.975 101.368 258.345 101.368C258.385 101.328 258.445 101.258 258.465 101.228C258.505 101.178 258.585 101.068 258.615 100.998C258.095 100.078 257.585 99.1684 257.065 98.2484C256.855 97.8784 256.615 97.4684 256.425 97.0884L256.415 97.0684L256.405 97.0484C255.815 95.5984 255.225 94.1284 254.705 92.6484C254.505 92.0684 254.305 91.4884 254.105 90.9084C254.045 90.7284 253.875 90.2884 253.875 90.0984C253.875 89.5984 254.475 88.9284 254.785 88.5784C255.415 87.8684 255.975 87.0784 256.355 86.2084C256.675 85.4684 256.895 84.6584 257.065 83.8584C257.205 82.9984 257.345 82.1384 257.485 81.2684C257.565 80.7984 257.695 80.3284 257.925 79.8984C258.035 79.6484 258.235 79.2984 258.395 79.0584C257.595 78.8984 255.755 78.8984 255.325 78.8984C254.825 78.8984 252.475 78.9184 252.015 79.1884C251.335 80.3984 250.945 81.7384 250.775 83.1184C250.575 84.7584 250.015 87.4884 247.875 87.4884C247.405 87.4884 246.945 87.3384 246.735 86.8984L246.725 86.8884V86.8684C246.605 86.5984 246.605 86.1184 246.605 85.8084C246.605 84.6384 246.645 83.4484 246.685 82.2684C246.715 81.1784 246.755 80.0784 246.755 78.9884C246.255 78.9884 245.735 79.0184 245.235 79.0584C244.605 79.0884 243.965 79.1284 243.325 79.1284C242.705 79.1284 242.065 79.0884 241.435 79.0584C240.895 79.0284 240.355 79.0084 239.805 78.9984C239.805 80.8684 239.875 82.7584 239.945 84.6284C240.015 86.5684 240.085 88.5284 240.085 90.4784C240.085 92.3084 240.015 94.1484 239.935 95.9784C239.865 97.7684 239.795 99.5784 239.785 101.368Z" fill="#DFDFDF"/>
</svg>
