<svg width="330" height="184" viewBox="0 0 330 184" fill="none" xmlns="http://www.w3.org/2000/svg">
<g clip-path="url(#clip0_183_1072)">
<mask id="mask0_183_1072" style="mask-type:luminance" maskUnits="userSpaceOnUse" x="65" y="80" width="200" height="23">
<path d="M265 80.0625H65V103.002H265V80.0625Z" fill="white"/>
</mask>
<g mask="url(#mask0_183_1072)">
<mask id="mask1_183_1072" style="mask-type:luminance" maskUnits="userSpaceOnUse" x="65" y="80" width="200" height="23">
<path d="M264.415 80.0625H65V103.002H264.415V80.0625Z" fill="white"/>
</mask>
<g mask="url(#mask1_183_1072)">
<path d="M65 80.0625V103.002H72.1625V93.8827H88.2862V88.6449H72.1625V85.2687H88.6963V80.0625H65Z" fill="#DFDFDF"/>
<path d="M127.381 103.002H135.112L122.837 80.0625H113.529L101.949 103.002H109.238L111.289 98.805H125.172L127.381 103.002ZM122.585 93.6303H113.908L118.167 85.0479L122.585 93.6303Z" fill="#DFDFDF"/>
<path d="M170.796 93.5041C173.163 93.5041 173.636 94.64 173.636 95.6181V95.7444C173.636 96.6594 173.163 97.9847 170.796 97.9847H158.964V93.5041H170.796ZM170.165 84.8901C172.185 84.8901 172.658 85.742 172.658 86.7202V86.7833C172.658 87.6983 172.153 88.6449 170.165 88.6449H158.964V84.8901H170.165ZM151.77 103.002H171.585C179 103.002 181.083 100.004 181.083 96.407V95.9652C181.083 91.9265 177.738 90.6012 176.16 90.191C177.265 89.8439 179.789 88.708 179.789 85.7105V85.2687C179.789 82.5867 177.959 80.0625 171.396 80.0625H151.77V103.002Z" fill="#DFDFDF"/>
<path d="M198.785 80.0625V103.002H221.882V97.2905H205.979V80.0625H198.785Z" fill="#DFDFDF"/>
<path d="M239.961 80.0625V103.002H264.415V97.6691H247.03V93.8827H263.69V88.6449H247.03V85.2687H264.1V80.0625H239.961Z" fill="#DFDFDF"/>
</g>
</g>
</g>
<defs>
<clipPath id="clip0_183_1072">
<rect width="200" height="23" fill="white" transform="translate(65 80)"/>
</clipPath>
</defs>
</svg>
