<svg width="330" height="184" viewBox="0 0 330 184" fill="none" xmlns="http://www.w3.org/2000/svg">
<g clip-path="url(#clip0_183_1153)">
<path d="M151.332 74.8037C153.217 74.8037 154.746 73.2806 154.746 71.4018C154.746 69.5231 153.217 68 151.332 68C149.446 68 147.918 69.5231 147.918 71.4018C147.918 73.2806 149.446 74.8037 151.332 74.8037Z" fill="#DFDFDF"/>
<path d="M85 102.946H91.6685V82.6254H106.724V77.5H85V102.946Z" fill="#DFDFDF"/>
<path d="M146.622 93.371V77.4844H139.965V102.953H146.622L156.295 87.3837V102.987L163.088 102.953V77.4844H156.295L146.622 93.371Z" fill="#DFDFDF"/>
<path d="M189.94 84.4071C189.932 82.95 189.46 81.533 188.593 80.3596C187.727 79.1861 186.509 78.3165 185.115 77.8755C183.26 77.3829 181.344 77.1576 179.425 77.2065C177.655 77.0734 175.875 77.2539 174.168 77.7395C172.657 78.1369 171.318 79.0179 170.358 80.2471C169.398 81.4762 168.869 82.9856 168.854 84.5432H175.021C175.03 84.1532 175.139 83.7719 175.338 83.4362C175.537 83.1005 175.82 82.8217 176.159 82.6268C177.103 82.2405 178.125 82.0849 179.141 82.1732H179.425C180.545 82.0882 181.671 82.2428 182.725 82.6268C183.063 82.8207 183.345 83.0977 183.544 83.4313C183.743 83.7649 183.853 84.1438 183.863 84.5318C183.873 84.8235 183.823 85.1141 183.719 85.3867C183.614 85.6593 183.456 85.9083 183.253 86.1194C183.051 86.3305 182.809 86.4993 182.54 86.6161C182.272 86.7329 181.983 86.7953 181.69 86.7997H176.182V91.8911H181.292C182.111 91.9173 182.889 92.2572 183.463 92.8401C184.037 93.423 184.364 94.204 184.376 95.0208C184.367 95.5532 184.227 96.0752 183.967 96.5403C183.707 97.0053 183.335 97.3988 182.885 97.6856C181.911 98.1612 180.82 98.3426 179.744 98.2072C178.662 98.3433 177.564 98.1538 176.592 97.6629C176.163 97.4069 175.803 97.0496 175.545 96.6224C175.287 96.1953 175.139 95.7115 175.112 95.2136H168.398C168.431 96.4093 168.735 97.5821 169.287 98.6444C169.839 99.7067 170.624 100.631 171.585 101.348C173.417 102.754 176.524 103.276 179.71 103.276C182.215 103.376 184.711 102.903 187.004 101.893C188.102 101.263 189.033 100.381 189.72 99.3202C190.407 98.2598 190.831 97.0514 190.956 95.7952C191.08 94.539 190.902 93.2713 190.437 92.0973C189.971 90.9234 189.231 89.8769 188.279 89.0449C188.859 88.4262 189.306 87.6954 189.592 86.8977C189.878 86.0999 189.996 85.2523 189.94 84.4071Z" fill="#DFDFDF"/>
<path d="M202.95 92.7473H215.217V87.6219H202.95V82.6325H217.356V77.4844H196.281V102.987H218.028V97.8841H202.95V92.7473Z" fill="#DFDFDF"/>
<path d="M119.129 92.7473H131.397V87.6219H119.129V82.6325H133.536V77.4844H112.461V102.987H134.208V97.8841H119.129V92.7473Z" fill="#DFDFDF"/>
<path d="M237.099 77.5703H223.785V102.948H230.488V95.8609H237.111C239.464 95.7772 241.695 94.7985 243.346 93.126C244.997 91.4535 245.942 89.2142 245.987 86.8687V86.6306C246.011 84.2555 245.089 81.9679 243.423 80.2694C241.757 78.5709 239.483 77.6002 237.099 77.5703ZM239.375 86.7666C239.374 87.2968 239.268 87.8214 239.063 88.3106C238.858 88.7998 238.558 89.244 238.181 89.6178C237.804 89.9916 237.356 90.2877 236.864 90.4892C236.372 90.6907 235.845 90.7936 235.313 90.7921H230.476V82.6164H235.427C236.473 82.6621 237.463 83.102 238.196 83.8473C238.929 84.5925 239.35 85.5873 239.375 86.6306V86.7666Z" fill="#DFDFDF"/>
<path d="M85.2244 111.578C85.1898 110.879 85.3726 110.186 85.7479 109.594C85.9082 109.351 86.1285 109.154 86.3876 109.021C86.6467 108.888 86.9359 108.823 87.2273 108.834C87.4839 108.833 87.7385 108.879 87.9783 108.97C88.2002 109.051 88.402 109.179 88.5701 109.344V106.68H89.5032V109.424C89.6736 109.237 89.8835 109.09 90.1177 108.993C90.3746 108.891 90.6492 108.841 90.9257 108.846C91.216 108.834 91.5044 108.896 91.7635 109.027C92.0225 109.158 92.2434 109.353 92.405 109.594C92.7803 110.186 92.9631 110.879 92.9285 111.578V111.68C92.9569 112.317 92.7684 112.944 92.3937 113.461C92.2219 113.683 91.9988 113.861 91.7432 113.98C91.4877 114.098 91.2072 114.154 90.9257 114.141C90.6464 114.148 90.3683 114.102 90.1063 114.005C89.8687 113.914 89.6548 113.77 89.4805 113.585V116.001H88.5473V113.631C88.3803 113.8 88.1785 113.932 87.9556 114.016C87.7112 114.104 87.4528 114.146 87.1931 114.141C86.9116 114.154 86.6311 114.098 86.3756 113.98C86.12 113.861 85.8969 113.683 85.7251 113.461C85.3504 112.944 85.1619 112.317 85.1903 111.68L85.2244 111.578ZM86.1576 111.68C86.1384 112.122 86.2492 112.559 86.4762 112.939C86.5864 113.094 86.7337 113.218 86.9046 113.301C87.0756 113.385 87.2648 113.424 87.4549 113.415C87.6867 113.423 87.9159 113.364 88.1149 113.245C88.3026 113.125 88.4586 112.962 88.5701 112.769V110.195C88.4554 110.011 88.2997 109.856 88.1149 109.741C87.9175 109.63 87.693 109.575 87.4662 109.583C87.2641 109.573 87.0634 109.621 86.8879 109.722C86.7124 109.822 86.5696 109.971 86.4762 110.15C86.2469 110.594 86.1371 111.09 86.1576 111.59V111.68ZM92.0067 111.578C92.0269 111.076 91.9088 110.578 91.6654 110.138C91.5632 109.962 91.4153 109.816 91.237 109.716C91.0588 109.616 90.8569 109.566 90.6526 109.571C90.4119 109.562 90.1741 109.626 89.9698 109.753C89.7776 109.882 89.6212 110.058 89.5146 110.263V112.735C89.6214 112.934 89.7782 113.102 89.9698 113.223C90.1792 113.347 90.42 113.41 90.6639 113.404C90.8578 113.416 91.0516 113.379 91.2268 113.296C91.4021 113.212 91.5531 113.086 91.6654 112.928C91.9074 112.558 92.0268 112.122 92.0067 111.68V111.578Z" fill="#DFDFDF"/>
<path d="M102.147 108.938H103.08V114.04H102.147V110.412L99.8706 114.04H98.9375V108.938H99.8706V112.566L102.147 108.938Z" fill="#DFDFDF"/>
<path d="M113.434 108.938V114.04H112.501V109.675H110.771V111.115C110.831 111.892 110.694 112.672 110.373 113.383C110.236 113.62 110.033 113.813 109.789 113.94C109.545 114.066 109.27 114.121 108.996 114.097H108.734V113.303H108.928C109.081 113.31 109.233 113.266 109.358 113.178C109.484 113.089 109.577 112.962 109.622 112.816C109.781 112.283 109.846 111.726 109.815 111.171V108.994L113.434 108.938Z" fill="#DFDFDF"/>
<path d="M120.481 110.872H121.756C122.263 110.84 122.764 110.994 123.167 111.303C123.331 111.442 123.461 111.616 123.548 111.813C123.635 112.009 123.675 112.223 123.667 112.437C123.671 112.652 123.627 112.865 123.538 113.061C123.45 113.257 123.319 113.431 123.155 113.571C122.758 113.893 122.255 114.054 121.744 114.025H119.582V108.922H120.515L120.481 110.872ZM120.481 111.598V113.31H121.756C121.889 113.322 122.023 113.307 122.15 113.266C122.277 113.225 122.394 113.159 122.495 113.072C122.574 112.993 122.636 112.9 122.677 112.796C122.718 112.693 122.738 112.582 122.734 112.471C122.739 112.244 122.653 112.023 122.495 111.859C122.397 111.766 122.281 111.694 122.153 111.649C122.026 111.604 121.89 111.587 121.756 111.598H120.481Z" fill="#DFDFDF"/>
<path d="M133.235 109.648H131.54V114.036H130.607V109.648H128.945V108.922H133.235V109.648Z" fill="#DFDFDF"/>
<path d="M143.479 111.683C143.509 112.32 143.32 112.948 142.944 113.464C142.773 113.686 142.549 113.864 142.294 113.983C142.038 114.101 141.758 114.157 141.476 114.144C141.191 114.15 140.908 114.096 140.646 113.985C140.408 113.878 140.201 113.715 140.043 113.509V116.004H139.109V108.939H139.826L139.974 109.597C140.132 109.359 140.347 109.164 140.6 109.03C140.872 108.896 141.173 108.829 141.476 108.837C141.766 108.826 142.055 108.889 142.313 109.02C142.572 109.151 142.793 109.346 142.956 109.586C143.331 110.178 143.514 110.871 143.479 111.57V111.683ZM142.546 111.581C142.567 111.083 142.449 110.588 142.205 110.153C142.101 109.978 141.952 109.835 141.774 109.737C141.596 109.639 141.395 109.591 141.192 109.597C140.951 109.59 140.714 109.653 140.509 109.778C140.317 109.904 140.161 110.075 140.054 110.277V112.749C140.161 112.948 140.318 113.116 140.509 113.237C140.718 113.362 140.959 113.425 141.203 113.418C141.398 113.429 141.593 113.39 141.768 113.305C141.943 113.22 142.094 113.091 142.205 112.931C142.446 112.56 142.565 112.124 142.546 111.683V111.581Z" fill="#DFDFDF"/>
<path d="M150.534 110.872H151.809C152.316 110.84 152.818 110.994 153.22 111.303C153.384 111.442 153.514 111.616 153.601 111.813C153.688 112.009 153.729 112.223 153.721 112.437C153.723 112.652 153.679 112.865 153.591 113.061C153.502 113.256 153.372 113.431 153.209 113.571C152.812 113.893 152.308 114.054 151.798 114.025H149.59V108.922H150.523L150.534 110.872ZM150.534 111.598V113.31H151.809C151.942 113.322 152.076 113.307 152.203 113.266C152.33 113.225 152.447 113.159 152.549 113.072C152.627 112.993 152.689 112.9 152.73 112.796C152.771 112.693 152.791 112.582 152.788 112.471C152.792 112.244 152.706 112.023 152.549 111.859C152.451 111.766 152.334 111.694 152.207 111.649C152.079 111.604 151.944 111.587 151.809 111.598H150.534ZM155.564 114.036H154.631V108.933H155.564V114.036Z" fill="#DFDFDF"/>
<path d="M169.368 113.315C169.618 113.315 169.789 113.11 169.903 112.702C170.042 112.095 170.122 111.476 170.142 110.854L170.267 108.938H173.681V113.315H174.352V115.73H173.419V114.04H169.8V115.73H168.867V113.315H169.368ZM171.086 110.854C171.086 111.455 170.995 111.988 170.938 112.339C170.889 112.677 170.79 113.006 170.642 113.315H172.736V109.765H171.155L171.086 110.854Z" fill="#DFDFDF"/>
<path d="M184.352 108.938V114.04H183.419V109.675H181.689V111.115C181.748 111.892 181.612 112.672 181.291 113.383C181.153 113.62 180.951 113.813 180.707 113.94C180.463 114.066 180.188 114.121 179.914 114.097H179.652V113.303H179.891C180.045 113.31 180.196 113.266 180.322 113.178C180.448 113.089 180.54 112.962 180.585 112.816C180.744 112.283 180.81 111.726 180.779 111.171V108.994L184.352 108.938Z" fill="#DFDFDF"/>
<path d="M194.518 108.938V114.04H193.551V112.101H192.287L191.07 114.086H190.137L191.434 111.965C191.133 111.868 190.872 111.676 190.69 111.418C190.507 111.161 190.413 110.851 190.421 110.536C190.415 110.32 190.459 110.105 190.55 109.908C190.641 109.712 190.776 109.539 190.945 109.402C191.36 109.092 191.872 108.94 192.39 108.972L194.518 108.938ZM191.332 110.514C191.329 110.62 191.348 110.726 191.387 110.826C191.426 110.925 191.485 111.015 191.559 111.092C191.652 111.177 191.762 111.242 191.881 111.283C192.001 111.324 192.127 111.34 192.253 111.33H193.551V109.663H192.322C192.045 109.645 191.771 109.734 191.559 109.913C191.473 109.986 191.403 110.076 191.354 110.177C191.305 110.279 191.278 110.39 191.275 110.502L191.332 110.514Z" fill="#DFDFDF"/>
<path d="M208.023 114.037V108.934H210.049C210.595 108.904 211.139 109.026 211.619 109.286C211.801 109.393 211.95 109.548 212.048 109.734C212.147 109.92 212.191 110.13 212.177 110.34C212.18 110.57 212.103 110.794 211.961 110.975C211.802 111.175 211.588 111.324 211.346 111.406C211.635 111.469 211.894 111.625 212.086 111.848C212.262 112.054 212.359 112.315 212.359 112.586C212.381 112.804 212.344 113.024 212.252 113.223C212.16 113.422 212.016 113.594 211.836 113.719C211.4 113.99 210.892 114.121 210.379 114.094L208.023 114.037ZM208.957 111.089H210.095C210.4 111.108 210.705 111.049 210.982 110.919C211.077 110.867 211.156 110.79 211.208 110.695C211.26 110.601 211.285 110.493 211.278 110.386C211.282 110.276 211.255 110.167 211.201 110.071C211.147 109.975 211.067 109.895 210.971 109.841C210.693 109.702 210.382 109.639 210.072 109.66H208.934L208.957 111.089ZM208.957 111.803V113.323H210.368C210.643 113.343 210.918 113.276 211.153 113.13C211.238 113.062 211.307 112.976 211.355 112.877C211.402 112.779 211.427 112.672 211.427 112.563C211.427 112.454 211.402 112.346 211.355 112.248C211.307 112.15 211.238 112.064 211.153 111.996C210.92 111.845 210.645 111.774 210.368 111.792L208.957 111.803Z" fill="#DFDFDF"/>
<path d="M218.167 111.442C218.141 110.769 218.36 110.109 218.781 109.583C218.984 109.34 219.241 109.147 219.531 109.019C219.821 108.891 220.137 108.832 220.454 108.846C220.773 108.832 221.09 108.891 221.382 109.019C221.674 109.147 221.933 109.34 222.138 109.583C222.564 110.112 222.782 110.777 222.753 111.454V111.556C222.782 112.233 222.564 112.898 222.138 113.427C221.925 113.659 221.666 113.844 221.377 113.971C221.088 114.098 220.776 114.163 220.46 114.163C220.144 114.163 219.832 114.098 219.543 113.971C219.254 113.844 218.995 113.659 218.781 113.427C218.355 112.898 218.137 112.233 218.167 111.556V111.442ZM219.1 111.545C219.081 112.014 219.2 112.479 219.441 112.883C219.556 113.046 219.708 113.18 219.885 113.272C220.063 113.365 220.26 113.413 220.46 113.413C220.66 113.413 220.857 113.365 221.034 113.272C221.212 113.18 221.364 113.046 221.478 112.883C221.72 112.479 221.839 112.014 221.82 111.545V111.442C221.837 110.972 221.714 110.506 221.467 110.104C221.36 109.933 221.208 109.792 221.028 109.699C220.848 109.605 220.646 109.561 220.443 109.571C220.242 109.563 220.042 109.608 219.864 109.702C219.686 109.795 219.536 109.934 219.43 110.104C219.189 110.508 219.07 110.973 219.089 111.442L219.1 111.545Z" fill="#DFDFDF"/>
<path d="M228.895 113.315C229.146 113.315 229.328 113.11 229.43 112.702C229.569 112.095 229.649 111.476 229.669 110.854L229.794 108.938H233.208V113.315H233.88V115.73H232.946V114.04H229.328V115.73H228.395V113.315H228.895ZM230.614 110.854C230.614 111.455 230.523 111.988 230.466 112.339C230.417 112.677 230.317 113.006 230.17 113.315H232.241V109.765H230.659L230.614 110.854Z" fill="#DFDFDF"/>
<path d="M240.8 110.872H242.075C242.582 110.84 243.083 110.994 243.486 111.303C243.649 111.443 243.779 111.617 243.866 111.813C243.952 112.01 243.994 112.223 243.986 112.437C243.99 112.652 243.946 112.865 243.857 113.061C243.769 113.257 243.638 113.431 243.474 113.571C243.077 113.893 242.574 114.054 242.063 114.025H239.855V108.922H240.789L240.8 110.872ZM240.8 111.598V113.31H242.075C242.208 113.322 242.341 113.307 242.468 113.266C242.596 113.225 242.713 113.159 242.814 113.072C242.893 112.993 242.955 112.9 242.996 112.796C243.037 112.693 243.056 112.582 243.053 112.471C243.057 112.244 242.971 112.024 242.814 111.859C242.716 111.766 242.6 111.694 242.472 111.649C242.345 111.604 242.209 111.587 242.075 111.598H240.8ZM245.83 114.036H244.897V108.933H245.83V114.036Z" fill="#DFDFDF"/>
</g>
<defs>
<clipPath id="clip0_183_1153">
<rect width="161" height="48" fill="white" transform="translate(85 68)"/>
</clipPath>
</defs>
</svg>
