<svg width="160" height="42" viewBox="0 0 160 42" fill="none" xmlns="http://www.w3.org/2000/svg">
<path d="M16.1836 15.6134L37.8369 6.95312V28.6025L16.1836 37.2615V15.6134Z" fill="#0092FF" stroke="#0092FF" stroke-width="2.85" stroke-miterlimit="16" stroke-linecap="round"/>
<path opacity="0.6" d="M27.0099 4.78906L9.6875 11.2836V28.6029" stroke="#0092FF" stroke-width="2.85" stroke-miterlimit="16" stroke-linecap="square"/>
<path opacity="0.4" d="M16.1829 2.61719L3.19141 6.94597V19.9351" stroke="#0092FF" stroke-width="2.85" stroke-miterlimit="16" stroke-linecap="square"/>
<path fill-rule="evenodd" clip-rule="evenodd" d="M146.722 22.7987C144.333 22.9607 139.394 23.0039 137.348 23.8114C136.529 24.1343 136.12 24.6087 136.12 25.2349C136.12 28.25 145.489 27.5002 146.722 22.7987ZM85.8262 29.7179V30.078H81.3634V29.7179V10.1797H85.8262C85.8262 13.8366 85.8262 17.1637 85.8262 20.8208L93.4957 14.0514L93.5604 13.9912H99.0649C96.1359 16.4585 93.1766 18.9572 90.2359 21.4345C93.5111 24.3193 96.7868 27.1943 100.061 30.078H94.1606C91.3953 27.5498 88.5987 25.4505 85.8262 22.9157C85.8262 25.3274 85.8262 27.3061 85.8262 29.7179ZM63.5584 18.3731C62.4302 19.2736 61.8663 20.4341 61.8663 21.8546C61.8663 23.2752 62.4302 24.4357 63.5584 25.3362C64.6865 26.2364 66.2191 26.6865 68.1558 26.6865C70.0925 26.6865 71.625 26.2364 72.7531 25.3362C73.8813 24.4357 74.4453 23.2752 74.4453 21.8546C74.4453 20.4341 73.8813 19.2736 72.7531 18.3731C71.625 17.4729 70.0925 17.0226 68.1558 17.0226C66.2191 17.0226 64.6865 17.4729 63.5584 18.3731ZM60.3386 27.9021C58.4019 26.4515 57.4336 24.4357 57.4336 21.8546C57.4336 19.2736 58.4019 17.2576 60.3386 15.807C62.2756 14.3564 64.8812 13.6311 68.1558 13.6311C71.4103 13.6311 74.006 14.3564 75.9429 15.807C77.8797 17.2576 78.848 19.2736 78.848 21.8546C78.848 24.4357 77.8797 26.4515 75.9429 27.9021C74.006 29.3528 71.4103 30.078 68.1558 30.078C64.8812 30.078 62.2756 29.3528 60.3386 27.9021ZM105.003 10.1797H104.733V13.9912H100.151C100.151 15.1117 100.151 16.2323 100.151 17.3525H104.733V20.324V25.5418C104.733 28.0404 106.766 30.078 109.26 30.078H114.467V26.2063H109.196V20.324V17.3525H113.344H114.302H114.467V13.9912H114.302H113.344H112.385C110.901 13.9912 109.634 14.9702 109.196 16.3155V13.9912V12.6339V10.1797H107.099H105.003ZM120.44 10.1797H120.17V13.9912H115.588C115.588 15.1117 115.588 16.2323 115.588 17.3525H120.17V20.324V25.5418C120.17 28.0404 122.204 30.078 124.697 30.078H129.904V26.2063H124.633V20.324V17.3525H128.781H129.739H129.904V13.9912H129.739H128.781H127.823C126.338 13.9912 125.072 14.9702 124.633 16.3155V13.9912V12.6339V10.1797H122.536H120.44ZM151.185 20.9788V26.2915H153.141V30.078H150.614C148.582 30.078 147.052 28.4924 147.052 26.4677C143.64 31.4826 131.687 31.5027 131.687 25.4696C131.687 23.9435 132.421 22.8134 133.888 22.0796C136.96 20.5436 143.112 20.5554 146.722 20.3332V20.0689C146.722 15.8916 138.123 16.1812 137.048 19.1003H132.855C133.746 12.232 151.185 11.2519 151.185 20.9788Z" fill="white"/>
<path fill-rule="evenodd" clip-rule="evenodd" d="M156.137 26.2109H160V30.0828H156.137V26.2109Z" fill="#0092FF"/>
</svg>
