<svg width="330" height="184" viewBox="0 0 330 184" fill="none" xmlns="http://www.w3.org/2000/svg">
<g clip-path="url(#clip0_183_1109)">
<path d="M81.4318 88.1921L74.8381 95.2034L68.2464 88.1427V100.372H64V82.3452H68.0489L74.841 89.9456L81.6836 82.2969H85.5794V100.372H81.4318V88.1921Z" fill="#DFDFDF"/>
<path d="M212.839 82C213.188 83.121 213.388 83.8513 213.688 84.9229C212.389 84.9229 211.39 84.8746 210.442 84.9229C208.794 85.069 207.146 85.1667 205.497 85.4588C200.603 86.3844 196.906 90.4767 200.053 97.6389H208.546V86.2383H212.841V97.637H216.137C216.137 97.637 215.841 99.5859 215.688 100.414H192.811C192.562 99.6827 192.012 97.637 192.012 97.637H195.558C195.262 96.6137 195.009 95.7857 194.808 94.9085C193.959 91.0599 194.959 87.8478 198.205 85.4085C200.055 84.0067 202.236 83.0851 204.547 82.7293C207.296 82.3414 209.941 82.2437 212.839 82Z" fill="#DFDFDF"/>
<path d="M159.248 89.8479C158.799 91.0173 158.549 91.6508 158.199 92.5765H150.204V97.6437C151.952 97.6921 153.75 97.7404 155.548 97.7404H161.043C160.648 98.7637 160.293 99.5433 159.994 100.371H145.859V82.2969H159.245C159.395 82.587 159.64 83.0281 159.845 83.4179C160.002 83.8784 160.119 84.3511 160.194 84.831H150.258V89.8005C153.105 89.8479 156.002 89.8479 159.248 89.8479Z" fill="#DFDFDF"/>
<path d="M126.081 96.2741V100.366H121.886V86.1889H126.081V93.3995C128.778 92.0841 131.525 91.3529 133.374 89.4049C134.673 88.0412 135.172 86.9202 133.473 85.6531C132.7 85.1226 131.767 84.8648 130.825 84.9219C128.428 84.8735 125.98 84.9219 123.584 84.9219H120.887C121.183 83.9963 121.386 83.2167 121.686 82.1934C124.533 82.1934 127.329 82.145 130.127 82.1934C132.624 82.2417 135.321 82.4835 137.519 84.386C139.167 85.7992 139.117 88.2839 137.569 90.1352C134.976 93.3995 130.93 94.4229 126.081 96.2741Z" fill="#DFDFDF"/>
<path d="M253.094 96.2763V100.369H248.998V86.1912H253.094V93.3486C255.841 92.0815 258.588 91.2536 260.536 89.3046C262.233 87.5994 261.884 86.0403 259.637 85.2124C258.924 85.0003 258.185 84.8854 257.44 84.8709C255.092 84.8226 252.798 84.8709 250.447 84.8709C249.699 84.8709 248.999 84.8226 248 84.7742C248.296 83.8486 248.549 83.069 248.849 82.1917C252.845 82.2885 256.741 81.8503 260.586 82.4819C260.922 82.5067 261.256 82.5555 261.584 82.6279C263.533 83.2615 265.331 84.1378 265.879 86.3305C266.379 88.3771 265.23 89.9353 263.732 91.2023C261.235 93.3457 258.188 94.4183 255.141 95.5384C254.492 95.7898 253.743 96.0326 253.094 96.2763Z" fill="#DFDFDF"/>
<path d="M236.31 82.6822C239.756 83.2626 241.455 85.3614 241.553 88.7757C241.663 90.5575 241.371 92.341 240.697 93.9997C240.024 95.6584 238.986 97.1516 237.658 98.3734C235.801 100.089 233.337 101.032 230.785 101.004C228.233 100.977 225.791 99.9817 223.973 98.2273C222.614 96.9101 221.572 95.3123 220.924 93.5507C220.276 91.789 220.038 89.9078 220.227 88.0445C220.319 86.6901 220.895 85.4106 221.853 84.4306C222.812 83.4506 224.093 82.8326 225.471 82.6851C229.05 82.0018 232.73 82.0008 236.31 82.6822ZM224.523 88.679C224.393 90.1774 224.588 91.6857 225.096 93.1048C225.604 94.5239 226.413 95.8217 227.469 96.9129C227.886 97.3683 228.394 97.7343 228.962 97.9878C229.53 98.2414 230.145 98.377 230.769 98.386C231.393 98.3951 232.013 98.2775 232.588 98.0406C233.163 97.8037 233.682 97.4527 234.112 97.0096C235.252 95.944 236.118 94.629 236.639 93.1724C237.16 91.7158 237.321 90.159 237.11 88.6297C236.659 83.6562 224.872 83.4618 224.523 88.6732V88.679Z" fill="#DFDFDF"/>
<path d="M182.372 82.6822C185.819 83.2626 187.517 85.3614 187.616 88.7757C187.725 90.5574 187.433 92.3409 186.76 93.9996C186.087 95.6583 185.049 97.1515 183.721 98.3734C181.864 100.089 179.401 101.032 176.848 101.004C174.296 100.977 171.854 99.9817 170.036 98.2273C168.677 96.9102 167.635 95.3124 166.987 93.5508C166.339 91.7891 166.101 89.9079 166.289 88.0445C166.381 86.6902 166.957 85.4108 167.916 84.4308C168.875 83.4508 170.155 82.8328 171.533 82.6851C175.112 82.0018 178.792 82.0008 182.372 82.6822ZM170.585 88.679C170.456 90.1774 170.651 91.6858 171.159 93.1049C171.667 94.524 172.476 95.8217 173.533 96.9129C173.949 97.3684 174.457 97.7345 175.025 97.9882C175.593 98.2418 176.209 98.3774 176.833 98.3865C177.457 98.3956 178.076 98.2779 178.651 98.041C179.227 97.804 179.746 97.4528 180.176 97.0096C181.316 95.944 182.182 94.629 182.703 93.1724C183.224 91.7158 183.385 90.159 183.173 88.6297C182.774 83.6562 170.985 83.4618 170.585 88.6732V88.679Z" fill="#DFDFDF"/>
<path d="M109.304 82.6838C112.75 83.2641 114.448 85.363 114.548 88.7773C114.656 90.5586 114.363 92.3415 113.69 93.9997C113.017 95.6578 111.979 97.1506 110.651 98.3721C108.794 100.087 106.33 101.03 103.778 101.003C101.226 100.976 98.7839 99.9804 96.9656 98.226C95.6067 96.9088 94.5651 95.3111 93.9169 93.5494C93.2687 91.7878 93.0303 89.9066 93.2189 88.0432C93.311 86.6888 93.8869 85.4095 94.8457 84.4295C95.8046 83.4495 97.0851 82.8315 98.4627 82.6838C102.043 82.0012 105.724 82.0012 109.304 82.6838ZM97.5167 88.6747C97.387 90.1731 97.5825 91.6814 98.0904 93.1006C98.5983 94.5197 99.407 95.8175 100.463 96.9087C100.88 97.3642 101.388 97.7303 101.956 97.9839C102.524 98.2376 103.139 98.3732 103.763 98.3823C104.387 98.3914 105.007 98.2737 105.582 98.0367C106.158 97.7997 106.677 97.4486 107.107 97.0054C108.246 95.9398 109.112 94.6248 109.633 93.1682C110.154 91.7116 110.315 90.1548 110.104 88.6254C109.653 83.6578 97.8663 83.4634 97.5167 88.6747Z" fill="#DFDFDF"/>
</g>
<defs>
<clipPath id="clip0_183_1109">
<rect width="202" height="19" fill="white" transform="translate(64 82)"/>
</clipPath>
</defs>
</svg>
