<svg width="330" height="184" viewBox="0 0 330 184" fill="none" xmlns="http://www.w3.org/2000/svg">
<g clip-path="url(#clip0_183_1119)">
<path d="M193.698 83.5248C191.032 83.5248 189.597 87.5935 189.597 93.0577C189.597 98.9331 191.755 101.228 194.283 101.228C196.345 101.228 198.461 99.3869 198.825 95.9173H199.574C199.454 99.7641 197.469 103.606 193.008 103.606C188.153 103.606 184.868 99.7131 184.868 93.4859C184.868 87.2588 188.115 82.5314 193.261 82.5314C197.486 82.5314 199.911 85.3245 199.911 88.3743C199.911 90.4284 198.84 91.5354 197.506 91.5354C197.027 91.5071 196.567 91.3387 196.182 91.051C195.797 90.7634 195.505 90.369 195.342 89.9166C197.801 87.7589 196.536 83.5248 193.698 83.5248ZM182.986 96.3208C183.383 100.148 180.408 103.602 175.772 103.602C170.624 103.602 167.632 99.1116 167.632 93.1056C167.632 86.8436 171.071 82.5144 175.801 82.5144C178.467 82.5144 182.202 83.8858 182.202 87.3616C182.202 89.8733 180.027 91.1628 178.376 91.7836C180.969 92.2769 182.712 93.6661 182.984 96.3193L182.986 96.3208ZM172.376 91.6746C173.429 91.6174 174.688 91.5695 175.906 91.5695H176.369C176.966 91.1389 178.123 89.9885 178.123 87.4822C178.123 86.0906 177.66 83.5001 175.436 83.5001C173.128 83.5086 172.466 86.4664 172.373 91.6761L172.376 91.6746ZM178.345 97.0815C178.345 94.0727 177.408 93.0615 174.882 93.0615C173.987 93.0615 173.124 93.1187 172.363 93.1906C172.363 99.0467 172.96 102.071 175.494 102.071C177.768 102.071 178.341 99.9396 178.341 97.0862L178.345 97.0815ZM206.996 87.5873C207.001 84.3404 208.247 83.0602 208.247 83.0602H201.239C201.239 83.0602 202.498 84.3474 202.498 87.5927V98.5311C202.498 101.778 201.239 103.064 201.239 103.064H208.247C208.247 103.064 206.99 101.776 206.99 98.5311L206.996 87.5873ZM216.444 98.6292L211.317 90.0929L212.6 88.096C213.987 85.9869 215.875 84.2565 218.094 83.0602H210.9C211.498 83.812 211.828 84.7426 211.839 85.7043C211.85 86.666 211.54 87.6038 210.959 88.3689L207.661 93.4581L211.191 99.6945C211.851 100.832 212.66 102.134 211.913 102.989H220.049C218.692 102.158 217.72 100.605 216.445 98.6316L216.444 98.6292ZM149.818 83.0617H137.216C137.216 83.0617 138.561 84.9805 138.128 89.3762C137.589 94.8976 136.194 99.4634 133.216 98.4213C132.714 99.106 132.483 99.9528 132.566 100.799C132.566 102.751 133.903 103.634 134.768 103.634C137.132 103.634 137.839 100.31 138.55 95.9034C139.089 92.5443 139.585 86.8459 139.791 84.3257H144.072V98.5319C144.072 101.779 142.813 103.064 142.813 103.064H149.83C149.83 103.064 148.571 101.777 148.571 98.5319V87.5904C148.558 84.3435 149.821 83.0641 149.821 83.0641L149.818 83.0617ZM155.284 80.5825C155.599 80.5812 155.911 80.5071 156.193 80.3658C156.476 80.2245 156.722 80.0198 156.913 79.7676C157.374 79.1897 157.646 78.4828 157.692 77.7437C157.772 77.044 157.601 76.3385 157.211 75.753C157.048 75.5057 156.827 75.3033 156.566 75.1642C156.305 75.0251 156.014 74.9538 155.718 74.9567C155.41 74.9569 155.106 75.0274 154.829 75.1628C154.552 75.2982 154.309 75.495 154.118 75.7383C153.653 76.3086 153.38 77.0125 153.339 77.7483C153.254 78.4564 153.417 79.1722 153.802 79.7723C153.959 80.0219 154.177 80.227 154.436 80.3684C154.694 80.5097 154.985 80.5826 155.279 80.5801L155.284 80.5825ZM162.321 80.5825C162.637 80.5828 162.949 80.5113 163.233 80.3734C163.517 80.2355 163.767 80.0347 163.962 79.7862C164.434 79.2147 164.705 78.5035 164.733 77.7623C164.812 77.0622 164.641 76.3568 164.25 75.7716C164.088 75.5235 163.866 75.3204 163.605 75.1812C163.345 75.042 163.053 74.9712 162.757 74.9753C162.449 74.9757 162.145 75.0462 161.868 75.1816C161.591 75.317 161.348 75.5137 161.158 75.7569C160.694 76.3256 160.429 77.0321 160.406 77.7669C160.306 78.4724 160.462 79.1906 160.845 79.7908C161.004 80.0381 161.223 80.2406 161.482 80.3789C161.741 80.5173 162.031 80.5871 162.325 80.5817L162.321 80.5825ZM110.952 83.0795C110.952 83.0795 113.264 83.8193 112.128 87.9368L109.098 97.3606L106.035 87.9383C104.879 84.3605 106.864 83.0579 106.864 83.0579H99.0387C98.8214 77.4623 94.8843 73.0078 86.0298 73.0078C78.3035 73.0078 73 77.9632 73 82.7718C73 85.3825 75.0414 87.1729 77.3779 85.987C76.7463 85.1397 76.4363 84.0944 76.5033 83.0385C76.4987 81.8805 76.7265 80.7334 77.1732 79.6656C77.6199 78.5978 78.2763 77.6311 79.1033 76.8231C79.9302 76.0152 80.9109 75.3825 81.9867 74.9628C83.0626 74.543 84.2117 74.3448 85.3655 74.38C90.4069 74.38 93.1789 77.7932 93.1789 83.5565C93.1789 88.7122 91.354 92.7361 87.8245 92.7361C87.4311 92.7388 87.0393 92.6868 86.6601 92.5814V76.2424C85.7189 76.0598 84.7506 76.0703 83.8134 76.273C82.8763 76.4757 81.9898 76.8666 81.2072 77.4221V98.3293C81.2072 101.695 80.3595 103.045 80.3595 103.045H87.7467C87.7467 103.045 86.6725 101.704 86.6632 98.3687V93.9969C87.0642 94.0604 87.4695 94.0925 87.8754 94.0928C94.791 94.0928 98.712 89.7512 99.0256 84.2639C99.8775 85.52 100.552 86.8885 101.029 88.3303L106.679 104.932C105.995 106.606 105.278 107.803 103.954 107.803C103.724 107.81 103.495 107.768 103.282 107.68C103.069 107.593 102.877 107.462 102.717 107.296C102.558 107.129 102.435 106.932 102.356 106.715C102.276 106.498 102.243 106.267 102.258 106.037C102.262 105.535 102.34 105.037 102.49 104.559C102.077 104.369 101.622 104.288 101.169 104.325C100.716 104.362 100.281 104.515 99.9036 104.769C99.5267 105.024 99.2212 105.371 99.0166 105.778C98.812 106.185 98.715 106.638 98.7351 107.093C98.7351 109.489 100.276 111.003 102.812 111.003C105.201 111.003 106.834 109.148 107.787 105.914L113.295 89.0539C114.611 84.7602 116.541 83.0927 116.541 83.0927L110.952 83.0795ZM155.451 94.0974C155.674 99.2438 157.626 101.287 160.008 101.287C162.074 101.287 164.309 99.4371 164.655 95.9529H165.405C165.289 99.8183 163.474 103.636 158.839 103.636C154.106 103.636 150.699 99.5531 150.699 93.5192C150.699 87.2317 154.138 82.5221 158.868 82.5221C163.183 82.5221 165.777 85.3601 165.777 88.8421C165.777 92.5335 163.074 93.8145 160.817 94.0604C159.037 94.2338 157.245 94.2467 155.462 94.099L155.451 94.0974ZM157.455 92.5675C160.353 92.5675 161.287 91.8818 161.287 87.9035C161.287 85.8317 160.516 83.5055 158.801 83.5055C156.359 83.5055 155.487 86.7215 155.432 92.4732C156.104 92.5304 156.829 92.5721 157.468 92.5721L157.455 92.5675ZM246.813 81.4924C251.75 81.4924 252.46 75.8991 252.46 75.8991H251.863C251.497 76.6202 250.943 77.2275 250.259 77.6559C249.576 78.0842 248.788 78.3172 247.982 78.3297C245.97 78.3297 245.412 77.2188 245.807 75.8991C245.807 75.8991 242.499 74.7024 242.499 77.9408C242.511 79.9076 244.344 81.497 246.827 81.497L246.813 81.4924ZM254.905 87.5796C254.917 84.3466 256 83.0648 256 83.0648H249.536C249.536 83.0648 250.374 84.3512 250.374 87.5966V92.0457C250.374 98.279 249.099 101.197 246.852 101.197C243.99 101.197 243.99 97.9033 243.99 91.0801C243.99 89.6344 244.082 84.7749 244.655 83.0648H238.66C239.335 84.5818 239.675 86.2271 239.657 87.8881C239.696 90.3465 239.547 93.2448 239.547 95.8037C239.547 100.322 241.011 103.612 244.919 103.612C247.525 103.612 249.485 102.049 250.431 99.5369C250.546 100.778 250.819 101.999 251.243 103.17H255.908C255.356 102.523 254.932 101.116 254.932 97.8979L254.905 87.5796ZM236.872 83.0648H230.407C230.407 83.0648 231.249 84.352 231.249 87.5974V92.0465C231.249 98.2798 229.974 101.197 227.724 101.197C224.864 101.197 224.864 97.9041 224.864 91.0809C224.864 89.6352 224.955 84.7756 225.529 83.0656H219.53C220.205 84.5826 220.545 86.2278 220.527 87.8888C220.566 90.3472 220.417 93.2455 220.417 95.8052C220.417 100.323 221.881 103.613 225.789 103.613C228.392 103.613 230.355 102.051 231.301 99.5384C231.341 100.79 231.617 102.023 232.113 103.172H236.778C236.226 102.525 235.802 101.118 235.802 97.8995V87.5904C235.791 84.345 236.875 83.0641 236.875 83.0641L236.872 83.0648ZM124.954 83.0648C122.041 83.0648 119.526 85.2596 118.538 88.0288H118.236C118.6 85.4057 119.558 82.5399 120.702 81.6037C122.743 79.9454 128.36 80.7054 130.324 79.6323C131.643 78.9281 133.01 76.339 132.559 74.0901H131.92C130.777 75.937 125.727 75.5335 123.495 76.2725C121.685 76.9368 120.2 78.2749 119.349 80.0088C116.794 84.8019 116.555 90.7183 116.555 93.5509C116.555 100.162 119.907 103.607 124.429 103.607C128.85 103.607 132.233 99.2593 132.233 93.3885C132.223 86.7717 129.636 83.0625 124.942 83.0625L124.954 83.0648ZM124.304 102.077C121.992 102.077 121.212 99.6281 121.212 93.9544C121.212 87.7899 121.828 84.2569 124.304 84.2569C126.918 84.2569 127.395 87.7899 127.395 93.9544C127.386 99.8677 126.471 102.072 124.294 102.072L124.304 102.077Z" fill="#DFDFDF"/>
</g>
<defs>
<clipPath id="clip0_183_1119">
<rect width="183" height="38" fill="white" transform="translate(73 73)"/>
</clipPath>
</defs>
</svg>
