<svg width="330" height="184" viewBox="0 0 330 184" fill="none" xmlns="http://www.w3.org/2000/svg">
<path d="M103.219 97.6339L109.215 97.6282C110.374 97.6282 111.401 97.3195 112.19 96.8026C113.029 96.2829 113.658 95.5104 114.031 94.6332L117.116 86.5312L111.331 86.5341C110.178 86.5341 109.154 86.7394 108.317 87.2606C107.423 87.7775 106.669 88.7538 106.44 89.4788L103.219 97.6339Z" fill="#DFDFDF"/>
<path d="M118.562 93.001L117.323 95.9945C116.793 97.1302 115.83 98.3693 115.207 98.7828C113.994 99.6586 112.259 100.434 110.367 100.438L98.9018 100.448L102.002 91.1719L103.242 88.1783C103.772 87.0426 104.734 85.8036 105.352 85.3887C106.572 84.5143 108.3 83.7361 110.193 83.7361L120.992 83.7246L118.562 93.001ZM136.491 79.1719H100.2C98.1984 79.1719 95.5207 79.7246 93.2985 81.2236C91.257 82.6694 90.8658 84.0075 90.0787 85.5595C89.9458 85.8668 89.6949 86.2803 89.5814 86.6435L84.6547 100.457L83 105.001H120.365C122.362 104.998 125.042 104.45 127.266 102.949C129.299 101.504 129.702 100.161 130.478 98.6148C130.614 98.3032 130.868 97.8897 130.982 97.5308L136.491 79.258H136.458L136.491 79.1719Z" fill="#DFDFDF"/>
<path d="M155.705 104.981C151.468 104.981 148.634 104.426 146.421 101.791C144.784 99.86 143.93 97.2957 143.93 92.3252C143.93 87.9806 144.357 84.7157 146.301 82.3754C148.788 79.3331 152.751 79 155.82 79H167.325V83.9361H160.055C157.182 83.9361 155.047 83.9002 153.838 85.9763C153.057 87.2771 152.945 90.9124 152.945 92.1744C152.945 95.0703 153.372 97.5614 153.602 98.005C154.772 100.045 157.297 100.045 160.209 100.045H167.754V104.981H155.705Z" fill="#DFDFDF"/>
<path d="M187.916 79V89.2211H179.253V79H170.469V104.981H179.253V94.1529H187.916V104.981H196.694V79H187.916Z" fill="#DFDFDF"/>
<path d="M201.637 104.981V83.748C201.637 82.598 201.674 81.3374 202.724 80.262C203.424 79.5556 204.63 79 205.954 79H220.363V83.9361H212.246C211.702 83.9361 211 83.9002 210.651 84.3037C210.418 84.6023 210.418 85.1594 210.418 85.6044V104.981H201.637Z" fill="#DFDFDF"/>
<path d="M230.849 98.8449C230.849 100.661 231.467 100.552 232.714 100.552H235.464C235.966 100.552 236.939 100.552 237.486 100.07C237.991 99.626 237.991 97.9031 237.991 97.458C237.991 96.8622 237.991 94.3525 237.402 93.9447C236.823 93.4968 235.966 93.4968 235.464 93.4968H230.849V98.8449ZM245.41 83.9361H232.519C230.885 83.9361 230.849 84.5291 230.849 85.4939V88.8736H240.976C243.076 88.8736 244.632 89.6906 245.446 90.5822C246.885 92.1744 247 94.9569 247 96.7028C247 98.9296 246.806 101.345 245.489 102.974C245.135 103.422 243.737 104.978 241.054 104.978H225.875C223.618 104.978 222.066 103.455 222.066 101.345V83.1565C222.066 79.2225 225.332 79 226.299 79H245.408L245.41 83.9361Z" fill="#DFDFDF"/>
</svg>
