<svg width="330" height="184" viewBox="0 0 330 184" fill="none" xmlns="http://www.w3.org/2000/svg">
<g clip-path="url(#clip0_183_1196)">
<path d="M119.026 103.526V96.6328H117V106.283H118.899L125.104 99.39V106.283H127.131V96.6328H125.231L119.026 103.526Z" fill="#DFDFDF"/>
<path d="M129.793 106.283H131.819V98.3874H138.784V96.6328H129.793V106.283Z" fill="#DFDFDF"/>
<path d="M143.085 104.152H146.884C149.29 104.152 150.936 102.648 150.936 100.393C150.936 98.1367 149.29 96.6328 146.884 96.6328H141.059V106.408H143.085V104.152ZM143.085 98.3874H146.757C148.023 98.3874 148.783 99.1393 148.783 100.393C148.783 101.521 148.023 102.272 146.757 102.272H143.085V98.3874Z" fill="#DFDFDF"/>
<path d="M161.319 99.39V106.283H163.345V96.6328H161.446L155.241 103.526V96.6328H153.215V106.283H155.241L161.319 99.39Z" fill="#DFDFDF"/>
<path d="M171.074 106.534C173.227 106.534 174.873 105.657 176.012 104.028L176.139 103.902L174.493 103.025L174.366 103.15C173.48 104.278 172.467 104.78 171.074 104.78C169.048 104.78 167.655 103.401 167.655 101.521C167.655 99.516 169.048 98.2627 171.074 98.2627C172.467 98.2627 173.606 98.764 174.366 99.7666L174.493 99.8919L176.139 99.0147L176.012 98.8893C174.999 97.2601 173.353 96.3828 171.2 96.3828C168.035 96.3828 165.755 98.5134 165.755 101.521C165.629 104.529 167.781 106.534 171.074 106.534Z" fill="#DFDFDF"/>
<path d="M181.583 106.283H183.61V98.3874H187.662V96.6328H177.531V98.3874H181.583V106.283Z" fill="#DFDFDF"/>
<path d="M195.384 98.8887H191.839V96.6328H189.812V106.408H195.384C197.79 106.408 199.437 104.904 199.437 102.648C199.437 100.393 197.79 98.8887 195.384 98.8887ZM191.965 100.643H195.384C196.397 100.643 197.537 101.019 197.537 102.523C197.537 103.776 196.777 104.403 195.384 104.403H191.965V100.643Z" fill="#DFDFDF"/>
<path d="M202.225 96.6328H200.199V106.408H202.225V96.6328Z" fill="#DFDFDF"/>
<path d="M206.909 104.528V102.272H213.114V100.393H206.909V98.3874H213.747V96.6328H204.883V106.283H214V104.528H206.909Z" fill="#DFDFDF"/>
<path d="M149.67 117.066C150.176 116.69 150.429 116.064 150.429 115.312C150.429 113.808 149.163 112.68 147.39 112.68H141.059V122.455H147.77C149.67 122.455 151.063 121.202 151.063 119.447C151.063 118.319 150.556 117.442 149.67 117.066ZM147.517 116.565H143.085V114.685H147.264C148.023 114.685 148.403 115.061 148.403 115.688C148.403 116.064 148.023 116.565 147.517 116.565ZM143.085 118.319H147.897C148.657 118.319 149.163 118.821 149.163 119.447C149.163 120.199 148.657 120.701 147.77 120.701H143.211V118.319H143.085Z" fill="#DFDFDF"/>
<path d="M155.37 119.698V112.68H153.344V122.455H155.243L161.448 115.562V122.455H163.474V112.68H161.575L155.37 119.698Z" fill="#DFDFDF"/>
<path d="M173.98 116.565H168.155V112.68H166.129V122.455H168.155V118.319H173.98V122.455H176.006V112.68H173.98V116.565Z" fill="#DFDFDF"/>
<path d="M182.212 112.68L177.906 122.455H180.059L180.692 120.951H187.024L187.657 122.455H189.81L185.631 112.68H182.212ZM184.364 114.56L186.264 119.197H181.579L183.478 114.56H184.364Z" fill="#DFDFDF"/>
<path d="M152.711 137.614C152.711 137.99 152.711 138.366 152.965 138.617C153.218 138.868 153.724 138.868 153.978 138.868C154.231 138.868 154.231 138.993 154.231 139.118C154.231 139.244 154.231 139.369 153.724 139.369C153.091 139.369 152.458 139.244 151.825 139.244C151.192 139.244 150.559 139.369 149.925 139.369C149.546 139.369 149.419 139.244 149.419 139.118C149.419 138.993 149.419 138.868 149.672 138.868C150.052 138.868 150.432 138.868 150.685 138.617C150.939 138.366 150.939 138.116 150.939 137.614V131.724C150.939 131.223 150.939 131.097 150.685 131.097C150.432 131.097 150.179 131.223 149.799 131.348C149.419 131.473 149.419 131.473 149.292 131.473C149.039 131.473 149.039 131.348 149.039 131.223C149.039 130.972 149.292 130.972 149.799 130.721C150.305 130.471 150.939 130.345 151.445 130.095C152.205 129.844 152.205 129.719 152.331 129.719C152.585 129.719 152.458 129.969 152.458 130.095V130.972V137.614H152.711Z" fill="#DFDFDF"/>
<path d="M157.271 132.476C157.271 131.097 158.41 129.844 160.69 129.844C162.716 129.844 163.729 130.972 163.729 132.1C163.729 133.228 162.716 133.854 161.576 134.23C162.083 134.355 164.109 134.982 164.109 136.862C164.109 138.491 162.462 139.745 160.436 139.745C158.157 139.745 156.891 138.491 156.891 137.238C156.891 136.11 157.904 135.358 159.297 134.982C158.41 134.481 157.271 133.854 157.271 132.476ZM158.284 136.987C158.284 137.99 158.917 139.118 160.563 139.118C161.703 139.118 162.589 138.366 162.589 137.238C162.589 135.859 161.323 135.233 159.93 134.857C158.41 135.609 158.284 136.611 158.284 136.987ZM162.462 132.1C162.462 131.097 161.703 130.22 160.436 130.22C159.423 130.22 158.537 130.846 158.537 131.724C158.537 132.852 159.677 133.353 160.943 133.854C161.703 133.729 162.462 133.102 162.462 132.1Z" fill="#DFDFDF"/>
<path d="M167.531 139.995L171.203 132.224C171.33 132.099 171.33 131.974 171.33 131.723C171.33 131.598 171.33 131.472 170.823 131.472H168.797C167.531 131.472 166.897 131.472 166.518 131.598C166.011 131.598 166.264 131.723 166.011 131.723C165.758 131.723 165.884 131.472 165.758 131.347V130.47C165.758 130.094 165.884 130.094 166.011 130.094H166.771C168.924 130.219 170.19 130.219 172.216 130.094H172.596C172.723 130.094 172.723 130.094 172.723 130.219C172.723 130.219 172.723 130.344 172.596 130.595L168.164 140.12H167.531V139.995Z" fill="#DFDFDF"/>
<path d="M180.948 133.98C181.455 134.606 181.708 135.358 181.708 136.11C181.708 137.238 181.201 138.116 180.695 138.492C180.188 138.993 179.429 139.494 178.162 139.494C177.023 139.494 176.263 139.118 175.503 138.366C174.743 137.489 174.363 136.361 174.363 135.233C174.363 133.98 174.87 132.601 176.136 131.223C177.529 129.719 179.555 128.591 180.948 128.34C181.328 128.215 181.581 128.215 181.581 128.465C181.581 128.716 181.328 128.716 180.948 128.841C179.555 129.343 178.162 130.345 177.276 131.348C176.136 132.727 175.883 134.105 175.883 135.108C175.883 135.985 176.136 137.113 176.643 137.99C177.276 138.868 178.036 138.993 178.416 138.993C178.795 138.993 179.429 138.868 179.935 137.99C180.188 137.614 180.188 136.988 180.188 136.486C180.188 135.86 180.062 135.108 179.682 134.481C179.302 133.98 178.922 133.604 178.162 133.604C177.909 133.604 177.656 133.729 177.402 133.854C177.149 133.98 177.149 134.105 177.023 134.105C176.896 134.105 176.896 134.105 176.896 133.98V133.854C177.023 133.353 177.909 132.977 178.795 132.977C179.808 133.103 180.568 133.604 180.948 133.98Z" fill="#DFDFDF"/>
<path d="M165.499 78.4647C164.866 78.4647 164.232 78.9661 164.232 79.718C164.232 80.3446 164.739 80.9713 165.499 80.9713C166.132 80.9713 166.765 80.47 166.765 79.718C166.638 78.9661 166.132 78.4647 165.499 78.4647ZM180.061 71.3211C179.935 71.1958 179.808 71.1958 179.681 71.1958C179.555 71.1958 179.302 71.3211 179.302 71.3211C179.048 71.5718 179.048 71.9478 179.302 72.1984C179.555 72.4491 179.935 72.4491 180.188 72.1984C180.315 72.0731 180.315 71.5718 180.061 71.3211ZM176.769 70.9452C176.262 70.9452 175.883 71.3211 175.883 71.8225C175.883 72.3238 176.262 72.6997 176.769 72.6997C177.275 72.6997 177.655 72.3238 177.655 71.8225C177.782 71.3211 177.275 70.9452 176.769 70.9452ZM173.477 70.5692C172.843 70.5692 172.21 71.0705 172.21 71.8225C172.21 72.4491 172.717 73.0757 173.477 73.0757C174.11 73.0757 174.743 72.5744 174.743 71.8225C174.616 71.1958 174.11 70.5692 173.477 70.5692ZM169.678 70.1932C168.791 70.1932 168.031 70.9452 168.031 71.8225C168.031 72.6997 168.791 73.4517 169.678 73.4517C170.564 73.4517 171.324 72.6997 171.324 71.8225C171.45 70.9452 170.691 70.1932 169.678 70.1932ZM150.936 72.1984C151.189 72.4491 151.569 72.4491 151.822 72.1984C152.076 71.9478 152.076 71.5718 151.822 71.3211C151.696 71.1958 151.569 71.1958 151.443 71.1958C151.316 71.1958 151.063 71.3211 151.063 71.3211C150.683 71.5718 150.683 72.0731 150.936 72.1984ZM154.102 70.9452C153.595 70.9452 153.215 71.3211 153.215 71.8225C153.215 72.3238 153.595 72.6997 154.102 72.6997C154.608 72.6997 154.988 72.3238 154.988 71.8225C155.115 71.3211 154.608 70.9452 154.102 70.9452ZM157.521 70.5692C156.888 70.5692 156.255 71.0705 156.255 71.8225C156.255 72.4491 156.761 73.0757 157.521 73.0757C158.154 73.0757 158.787 72.5744 158.787 71.8225C158.787 71.1958 158.154 70.5692 157.521 70.5692ZM161.193 70.1932C160.307 70.1932 159.547 70.9452 159.547 71.8225C159.547 72.6997 160.307 73.4517 161.193 73.4517C162.08 73.4517 162.839 72.6997 162.839 71.8225C162.966 70.9452 162.206 70.1932 161.193 70.1932ZM165.499 69.9426C164.486 69.9426 163.599 70.8198 163.599 71.8225C163.599 72.8251 164.486 73.7023 165.499 73.7023C166.512 73.7023 167.398 72.8251 167.398 71.8225C167.272 70.8198 166.512 69.9426 165.499 69.9426ZM180.061 67.06C179.935 66.9347 179.808 66.9347 179.681 66.9347C179.555 66.9347 179.302 67.06 179.302 67.06C179.048 67.3107 179.048 67.6867 179.302 67.9373C179.555 68.188 179.935 68.188 180.188 67.9373C180.315 67.6867 180.315 67.3107 180.061 67.06ZM176.769 66.5587C176.262 66.5587 175.883 66.9347 175.883 67.436C175.883 67.9373 176.262 68.3133 176.769 68.3133C177.275 68.3133 177.655 67.9373 177.655 67.436C177.782 66.9347 177.275 66.5587 176.769 66.5587ZM173.477 66.3081C172.843 66.3081 172.21 66.8094 172.21 67.5614C172.21 68.188 172.717 68.8146 173.477 68.8146C174.11 68.8146 174.743 68.3133 174.743 67.5614C174.616 66.8094 174.11 66.3081 173.477 66.3081ZM169.678 65.8068C168.791 65.8068 168.031 66.5587 168.031 67.436C168.031 68.3133 168.791 69.0653 169.678 69.0653C170.564 69.0653 171.324 68.3133 171.324 67.436C171.45 66.5587 170.691 65.8068 169.678 65.8068ZM150.936 67.9373C151.189 68.188 151.569 68.188 151.822 67.9373C152.076 67.6867 152.076 67.3107 151.822 67.06C151.696 66.9347 151.569 66.9347 151.443 66.9347C151.316 66.9347 151.063 67.06 151.063 67.06C150.683 67.3107 150.683 67.6867 150.936 67.9373ZM154.102 66.5587C153.595 66.5587 153.215 66.9347 153.215 67.436C153.215 67.9373 153.595 68.3133 154.102 68.3133C154.608 68.3133 154.988 67.9373 154.988 67.436C155.115 66.9347 154.608 66.5587 154.102 66.5587ZM157.521 66.3081C156.888 66.3081 156.255 66.8094 156.255 67.5614C156.255 68.188 156.761 68.8146 157.521 68.8146C158.154 68.8146 158.787 68.3133 158.787 67.5614C158.787 66.8094 158.154 66.3081 157.521 66.3081ZM161.193 65.8068C160.307 65.8068 159.547 66.5587 159.547 67.436C159.547 68.3133 160.307 69.0653 161.193 69.0653C162.08 69.0653 162.839 68.3133 162.839 67.436C162.966 66.5587 162.206 65.8068 161.193 65.8068ZM165.499 65.6815C164.486 65.6815 163.599 66.5587 163.599 67.5614C163.599 68.564 164.486 69.4412 165.499 69.4412C166.512 69.4412 167.398 68.564 167.398 67.5614C167.272 66.4334 166.512 65.6815 165.499 65.6815ZM180.061 62.6736C179.935 62.5483 179.808 62.5483 179.681 62.5483C179.555 62.5483 179.302 62.6736 179.302 62.6736C179.048 62.9243 179.048 63.3003 179.302 63.5509C179.555 63.8016 179.935 63.8016 180.188 63.5509C180.315 63.3003 180.315 62.9243 180.061 62.6736ZM176.769 62.2976C176.262 62.2976 175.883 62.6736 175.883 63.1749C175.883 63.6762 176.262 64.0522 176.769 64.0522C177.275 64.0522 177.655 63.6762 177.655 63.1749C177.782 62.6736 177.275 62.2976 176.769 62.2976ZM173.477 61.9217C172.843 61.9217 172.21 62.423 172.21 63.1749C172.21 63.8016 172.717 64.4282 173.477 64.4282C174.11 64.4282 174.743 63.9269 174.743 63.1749C174.616 62.5483 174.11 61.9217 173.477 61.9217ZM169.678 61.4204C168.791 61.4204 168.031 62.1723 168.031 63.0496C168.031 63.9269 168.791 64.6789 169.678 64.6789C170.564 64.6789 171.324 63.9269 171.324 63.0496C171.45 62.1723 170.691 61.4204 169.678 61.4204ZM150.936 63.5509C151.189 63.8016 151.569 63.8016 151.822 63.5509C152.076 63.3003 152.076 62.9243 151.822 62.6736C151.696 62.5483 151.569 62.5483 151.443 62.5483C151.316 62.5483 151.063 62.6736 151.063 62.6736C150.683 62.9243 150.683 63.3003 150.936 63.5509ZM154.102 62.2976C153.595 62.2976 153.215 62.6736 153.215 63.1749C153.215 63.6762 153.595 64.0522 154.102 64.0522C154.608 64.0522 154.988 63.6762 154.988 63.1749C155.115 62.6736 154.608 62.2976 154.102 62.2976ZM157.521 61.9217C156.888 61.9217 156.255 62.423 156.255 63.1749C156.255 63.8016 156.761 64.4282 157.521 64.4282C158.154 64.4282 158.787 63.9269 158.787 63.1749C158.787 62.5483 158.154 61.9217 157.521 61.9217ZM161.193 61.4204C160.307 61.4204 159.547 62.1723 159.547 63.0496C159.547 63.9269 160.307 64.6789 161.193 64.6789C162.08 64.6789 162.839 63.9269 162.839 63.0496C162.966 62.1723 162.206 61.4204 161.193 61.4204ZM165.499 61.295C164.486 61.295 163.599 62.1723 163.599 63.1749C163.599 64.1775 164.486 65.0548 165.499 65.0548C166.512 65.0548 167.398 64.1775 167.398 63.1749C167.272 62.1723 166.512 61.295 165.499 61.295ZM180.061 58.4125C179.935 58.2872 179.808 58.2872 179.681 58.2872C179.555 58.2872 179.302 58.4125 179.302 58.4125C179.048 58.6632 179.048 59.0392 179.302 59.2898C179.555 59.5405 179.935 59.5405 180.188 59.2898C180.315 59.0392 180.315 58.6632 180.061 58.4125ZM176.769 57.9112C176.262 57.9112 175.883 58.2872 175.883 58.7885C175.883 59.2898 176.262 59.6658 176.769 59.6658C177.275 59.6658 177.655 59.2898 177.655 58.7885C177.782 58.2872 177.275 57.9112 176.769 57.9112ZM173.477 57.6606C172.843 57.6606 172.21 58.1619 172.21 58.9138C172.21 59.5405 172.717 60.1671 173.477 60.1671C174.11 60.1671 174.743 59.6658 174.743 58.9138C174.616 58.1619 174.11 57.6606 173.477 57.6606ZM169.678 57.1593C168.791 57.1593 168.031 57.9112 168.031 58.7885C168.031 59.6658 168.791 60.4178 169.678 60.4178C170.564 60.4178 171.324 59.6658 171.324 58.7885C171.45 57.9112 170.691 57.1593 169.678 57.1593ZM150.936 59.2898C151.189 59.5405 151.569 59.5405 151.822 59.2898C152.076 59.0392 152.076 58.6632 151.822 58.4125C151.696 58.2872 151.569 58.2872 151.443 58.2872C151.316 58.2872 151.063 58.4125 151.063 58.4125C150.683 58.6632 150.683 59.0392 150.936 59.2898ZM154.102 57.9112C153.595 57.9112 153.215 58.2872 153.215 58.7885C153.215 59.2898 153.595 59.6658 154.102 59.6658C154.608 59.6658 154.988 59.2898 154.988 58.7885C155.115 58.2872 154.608 57.9112 154.102 57.9112ZM157.521 57.6606C156.888 57.6606 156.255 58.1619 156.255 58.9138C156.255 59.5405 156.761 60.1671 157.521 60.1671C158.154 60.1671 158.787 59.6658 158.787 58.9138C158.787 58.1619 158.154 57.6606 157.521 57.6606ZM161.193 57.1593C160.307 57.1593 159.547 57.9112 159.547 58.7885C159.547 59.6658 160.307 60.4178 161.193 60.4178C162.08 60.4178 162.839 59.6658 162.839 58.7885C162.966 57.9112 162.206 57.1593 161.193 57.1593ZM165.499 57.0339C164.486 57.0339 163.599 57.9112 163.599 58.9138C163.599 59.9164 164.486 60.7937 165.499 60.7937C166.512 60.7937 167.398 59.9164 167.398 58.9138C167.272 57.7859 166.512 57.0339 165.499 57.0339ZM180.061 54.0261C179.935 53.9008 179.808 53.9008 179.681 53.9008C179.555 53.9008 179.302 54.0261 179.302 54.0261C179.048 54.2768 179.048 54.6527 179.302 54.9034C179.555 55.154 179.935 55.154 180.188 54.9034C180.315 54.6527 180.315 54.2768 180.061 54.0261ZM176.769 53.6501C176.262 53.6501 175.883 54.0261 175.883 54.5274C175.883 55.0287 176.262 55.4047 176.769 55.4047C177.275 55.4047 177.655 55.0287 177.655 54.5274C177.782 54.0261 177.275 53.6501 176.769 53.6501ZM173.477 53.2742C172.843 53.2742 172.21 53.7755 172.21 54.5274C172.21 55.154 172.717 55.7807 173.477 55.7807C174.11 55.7807 174.743 55.2794 174.743 54.5274C174.616 53.7755 174.11 53.2742 173.477 53.2742ZM169.678 52.7728C168.791 52.7728 168.031 53.5248 168.031 54.4021C168.031 55.2794 168.791 56.0313 169.678 56.0313C170.564 56.0313 171.324 55.2794 171.324 54.4021C171.45 53.5248 170.691 52.7728 169.678 52.7728ZM150.936 54.9034C151.189 55.154 151.569 55.154 151.822 54.9034C152.076 54.6527 152.076 54.2768 151.822 54.0261C151.696 53.9008 151.569 53.9008 151.443 53.9008C151.316 53.9008 151.063 54.0261 151.063 54.0261C150.683 54.2768 150.683 54.6527 150.936 54.9034ZM154.102 53.6501C153.595 53.6501 153.215 54.0261 153.215 54.5274C153.215 55.0287 153.595 55.4047 154.102 55.4047C154.608 55.4047 154.988 55.0287 154.988 54.5274C155.115 54.0261 154.608 53.6501 154.102 53.6501ZM157.521 53.2742C156.888 53.2742 156.255 53.7755 156.255 54.5274C156.255 55.154 156.761 55.7807 157.521 55.7807C158.154 55.7807 158.787 55.2794 158.787 54.5274C158.787 53.7755 158.154 53.2742 157.521 53.2742ZM161.193 52.7728C160.307 52.7728 159.547 53.5248 159.547 54.4021C159.547 55.2794 160.307 56.0313 161.193 56.0313C162.08 56.0313 162.839 55.2794 162.839 54.4021C162.966 53.5248 162.206 52.7728 161.193 52.7728ZM165.499 52.6475C164.486 52.6475 163.599 53.5248 163.599 54.5274C163.599 55.53 164.486 56.4073 165.499 56.4073C166.512 56.4073 167.398 55.53 167.398 54.5274C167.272 53.5248 166.512 52.6475 165.499 52.6475ZM180.061 49.765C179.935 49.6397 179.808 49.6397 179.681 49.6397C179.555 49.6397 179.302 49.765 179.302 49.765C179.048 50.0157 179.048 50.3916 179.302 50.6423C179.555 50.893 179.935 50.893 180.188 50.6423C180.315 50.3916 180.315 50.0157 180.061 49.765ZM176.769 49.2637C176.262 49.2637 175.883 49.6397 175.883 50.141C175.883 50.6423 176.262 51.0183 176.769 51.0183C177.275 51.0183 177.655 50.6423 177.655 50.141C177.782 49.6397 177.275 49.2637 176.769 49.2637ZM173.477 48.8877C172.843 48.8877 172.21 49.389 172.21 50.141C172.21 50.7676 172.717 51.3943 173.477 51.3943C174.11 51.3943 174.743 50.893 174.743 50.141C174.616 49.5144 174.11 48.8877 173.477 48.8877ZM169.678 48.5117C168.791 48.5117 168.031 49.2637 168.031 50.141C168.031 51.0183 168.791 51.7702 169.678 51.7702C170.564 51.7702 171.324 51.0183 171.324 50.141C171.45 49.2637 170.691 48.5117 169.678 48.5117ZM150.936 50.6423C151.189 50.893 151.569 50.893 151.822 50.6423C152.076 50.3916 152.076 50.0157 151.822 49.765C151.696 49.6397 151.569 49.6397 151.443 49.6397C151.316 49.6397 151.063 49.765 151.063 49.765C150.683 50.0157 150.683 50.3916 150.936 50.6423ZM154.102 49.2637C153.595 49.2637 153.215 49.6397 153.215 50.141C153.215 50.6423 153.595 51.0183 154.102 51.0183C154.608 51.0183 154.988 50.6423 154.988 50.141C155.115 49.6397 154.608 49.2637 154.102 49.2637ZM157.521 48.8877C156.888 48.8877 156.255 49.389 156.255 50.141C156.255 50.7676 156.761 51.3943 157.521 51.3943C158.154 51.3943 158.787 50.893 158.787 50.141C158.787 49.5144 158.154 48.8877 157.521 48.8877ZM161.193 48.5117C160.307 48.5117 159.547 49.2637 159.547 50.141C159.547 51.0183 160.307 51.7702 161.193 51.7702C162.08 51.7702 162.839 51.0183 162.839 50.141C162.966 49.2637 162.206 48.5117 161.193 48.5117ZM165.499 48.3864C164.486 48.3864 163.599 49.2637 163.599 50.2663C163.599 51.2689 164.486 52.1462 165.499 52.1462C166.512 52.1462 167.398 51.2689 167.398 50.2663C167.272 49.1384 166.512 48.3864 165.499 48.3864ZM180.061 45.3786C179.935 45.2533 179.808 45.2533 179.681 45.2533C179.555 45.2533 179.302 45.3786 179.302 45.3786C179.048 45.6292 179.048 46.0052 179.302 46.2559C179.555 46.5065 179.935 46.5065 180.188 46.2559C180.315 46.0052 180.315 45.6292 180.061 45.3786ZM176.769 44.8773C176.262 44.8773 175.883 45.2533 175.883 45.7546C175.883 46.2559 176.262 46.6319 176.769 46.6319C177.275 46.6319 177.655 46.2559 177.655 45.7546C177.782 45.3786 177.275 44.8773 176.769 44.8773ZM173.477 44.6266C172.843 44.6266 172.21 45.1279 172.21 45.8799C172.21 46.5065 172.717 47.1332 173.477 47.1332C174.11 47.1332 174.743 46.6319 174.743 45.8799C174.616 45.1279 174.11 44.6266 173.477 44.6266ZM169.678 44.1253C168.791 44.1253 168.031 44.8773 168.031 45.7546C168.031 46.6319 168.791 47.3838 169.678 47.3838C170.564 47.3838 171.324 46.6319 171.324 45.7546C171.45 44.8773 170.691 44.1253 169.678 44.1253ZM169.678 82.3499C169.551 82.3499 169.298 82.4752 169.171 82.4752C169.044 82.6005 169.044 82.7258 169.044 82.9765C169.044 83.1018 169.171 83.3525 169.171 83.4778C169.424 83.7285 169.804 83.7285 170.057 83.4778C170.311 83.2271 170.311 82.8512 170.057 82.6005C170.057 82.4752 169.931 82.3499 169.678 82.3499ZM169.678 78.8407C169.171 78.8407 168.791 79.2167 168.791 79.718C168.791 80.2193 169.171 80.5953 169.678 80.5953C170.184 80.5953 170.564 80.2193 170.564 79.718C170.691 79.2167 170.184 78.8407 169.678 78.8407ZM169.678 74.8303C169.044 74.8303 168.411 75.3316 168.411 76.0835C168.411 76.7102 168.918 77.3368 169.678 77.3368C170.311 77.3368 170.944 76.8355 170.944 76.0835C170.944 75.3316 170.437 74.8303 169.678 74.8303ZM173.856 79.2167C173.73 79.0914 173.603 79.0914 173.477 79.0914C173.35 79.0914 173.097 79.2167 172.97 79.2167C172.717 79.4674 172.717 79.8433 172.97 80.094C173.223 80.3446 173.603 80.3446 173.856 80.094C174.11 79.8433 174.11 79.4674 173.856 79.2167ZM177.275 75.5822C177.149 75.4569 177.022 75.4569 176.769 75.4569C176.642 75.4569 176.389 75.5822 176.262 75.5822C176.009 75.8329 176.009 76.2089 176.262 76.4595C176.516 76.7102 176.896 76.7102 177.149 76.4595C177.529 76.2089 177.529 75.8329 177.275 75.5822ZM173.477 75.0809C172.97 75.0809 172.59 75.4569 172.59 75.9582C172.59 76.4595 172.97 76.8355 173.477 76.8355C173.983 76.8355 174.363 76.4595 174.363 75.9582C174.363 75.4569 173.983 75.0809 173.477 75.0809ZM150.936 46.2559C151.189 46.5065 151.569 46.5065 151.822 46.2559C152.076 46.0052 152.076 45.6292 151.822 45.3786C151.696 45.2533 151.569 45.2533 151.316 45.2533C151.189 45.2533 151.063 45.2533 150.936 45.3786C150.683 45.6292 150.683 46.0052 150.936 46.2559ZM154.102 44.8773C153.595 44.8773 153.215 45.2533 153.215 45.7546C153.215 46.2559 153.595 46.6319 154.102 46.6319C154.608 46.6319 154.988 46.2559 154.988 45.7546C155.115 45.3786 154.608 44.8773 154.102 44.8773ZM157.521 44.6266C156.888 44.6266 156.255 45.1279 156.255 45.8799C156.255 46.5065 156.761 47.1332 157.521 47.1332C158.154 47.1332 158.787 46.6319 158.787 45.8799C158.787 45.1279 158.154 44.6266 157.521 44.6266ZM161.193 44.1253C160.307 44.1253 159.547 44.8773 159.547 45.7546C159.547 46.6319 160.307 47.3838 161.193 47.3838C162.08 47.3838 162.839 46.6319 162.839 45.7546C162.966 44.8773 162.206 44.1253 161.193 44.1253ZM165.499 44C164.486 44 163.599 44.8773 163.599 45.8799C163.599 46.8825 164.486 47.7598 165.499 47.7598C166.512 47.7598 167.398 46.8825 167.398 45.8799C167.272 44.8773 166.512 44 165.499 44ZM161.826 82.9765C161.826 82.8512 161.7 82.6005 161.7 82.4752C161.573 82.3499 161.446 82.3499 161.193 82.3499C161.067 82.3499 160.813 82.4752 160.687 82.4752C160.433 82.7258 160.433 83.1018 160.687 83.3525C160.94 83.6031 161.32 83.6031 161.573 83.3525C161.826 83.3525 161.826 83.2271 161.826 82.9765ZM161.193 78.8407C160.687 78.8407 160.307 79.2167 160.307 79.718C160.307 80.2193 160.687 80.5953 161.193 80.5953C161.7 80.5953 162.08 80.2193 162.08 79.718C162.206 79.2167 161.7 78.8407 161.193 78.8407ZM161.193 74.8303C160.56 74.8303 159.927 75.3316 159.927 76.0835C159.927 76.7102 160.433 77.3368 161.193 77.3368C161.826 77.3368 162.46 76.8355 162.46 76.0835C162.46 75.3316 161.953 74.8303 161.193 74.8303ZM157.141 80.094C157.394 80.3446 157.774 80.3446 158.027 80.094C158.281 79.8433 158.281 79.4674 158.027 79.2167C157.901 79.0914 157.648 79.0914 157.521 79.0914C157.394 79.0914 157.141 79.0914 157.014 79.2167C156.888 79.4674 156.888 79.8433 157.141 80.094ZM153.722 76.4595C153.975 76.7102 154.355 76.7102 154.608 76.4595C154.862 76.2089 154.862 75.8329 154.608 75.5822C154.355 75.3316 153.975 75.3316 153.722 75.5822C153.469 75.8329 153.469 76.2089 153.722 76.4595ZM157.521 75.0809C157.014 75.0809 156.634 75.4569 156.634 75.9582C156.634 76.4595 157.014 76.8355 157.521 76.8355C158.027 76.8355 158.407 76.4595 158.407 75.9582C158.407 75.4569 158.027 75.0809 157.521 75.0809ZM165.499 74.329C164.612 74.329 163.852 75.0809 163.852 75.9582C163.852 76.8355 164.612 77.5875 165.499 77.5875C166.385 77.5875 167.145 76.8355 167.145 75.9582C167.145 75.0809 166.385 74.329 165.499 74.329ZM165.879 85.3577C165.752 85.2324 165.625 85.2324 165.499 85.2324C165.372 85.2324 165.119 85.3577 165.119 85.3577C164.992 85.483 164.992 85.6083 164.992 85.7337C164.992 85.859 165.119 86.1097 165.119 86.1097C165.372 86.3603 165.752 86.3603 166.005 86.1097C166.132 85.9843 166.132 85.859 166.132 85.7337C166.132 85.6083 166.005 85.483 165.879 85.3577ZM165.499 82.0992C164.992 82.0992 164.612 82.4752 164.612 82.9765C164.612 83.4778 164.992 83.8538 165.499 83.8538C166.005 83.8538 166.385 83.4778 166.385 82.9765C166.385 82.4752 166.005 82.0992 165.499 82.0992Z" fill="#DFDFDF"/>
</g>
<defs>
<clipPath id="clip0_183_1196">
<rect width="97" height="96" fill="white" transform="translate(117 44)"/>
</clipPath>
</defs>
</svg>
