<svg width="330" height="184" viewBox="0 0 330 184" fill="none" xmlns="http://www.w3.org/2000/svg">
<g clip-path="url(#clip0_183_1137)">
<path fill-rule="evenodd" clip-rule="evenodd" d="M254.064 73.0007C248.822 72.9558 243.775 74.985 240.036 78.642C236.297 82.299 234.171 87.2842 234.125 92.5012C234.21 97.7073 236.348 102.672 240.078 106.323C243.808 109.975 248.831 112.022 254.063 112.022C259.296 112.022 264.319 109.975 268.049 106.323C271.779 102.672 273.917 97.7073 274.002 92.5012C273.956 87.2845 271.83 82.2996 268.091 78.6426C264.352 74.9857 259.307 72.9563 254.064 73.0007ZM244.421 100.618C243.962 100.646 243.505 100.533 243.113 100.293C242.808 100.126 242.541 99.8991 242.326 99.6269C242.11 99.3547 241.953 99.0423 241.861 98.7083C241.77 98.3742 241.747 98.0253 241.794 97.6822C241.84 97.3391 241.956 97.0088 242.133 96.711L248.588 85.7343C248.823 85.3381 249.158 85.0098 249.559 84.7817C249.961 84.5536 250.414 84.4336 250.877 84.4336C251.339 84.4336 251.793 84.5536 252.194 84.7817C252.596 85.0098 252.931 85.3381 253.165 85.7343L257.332 92.6453L261.501 85.7343C261.872 85.1346 262.46 84.6992 263.144 84.5177C263.828 84.3362 264.556 84.4224 265.178 84.7585C265.482 84.9258 265.75 85.1523 265.965 85.4244C266.18 85.6966 266.338 86.009 266.429 86.343C266.521 86.677 266.544 87.0259 266.497 87.3689C266.451 87.712 266.336 88.0423 266.158 88.3402L259.702 99.3178C259.468 99.714 259.133 100.042 258.732 100.27C258.33 100.499 257.876 100.619 257.414 100.619C256.952 100.619 256.498 100.499 256.097 100.27C255.696 100.042 255.361 99.714 255.127 99.3178L250.959 92.4059L246.791 99.3178C246.536 99.7133 246.185 100.039 245.771 100.266C245.357 100.493 244.893 100.614 244.42 100.618H244.421Z" fill="#DFDFDF"/>
<path d="M83.1913 94.0337C82.8686 94.098 82.5395 94.1252 82.2106 94.1149H80.7392C79.6769 94.1149 79.0238 94.6836 79.0238 95.4157C79.0238 96.229 79.5953 96.7165 80.985 96.7165H83.1913V94.0337ZM76.2452 99.4814C75.633 99.0027 75.1487 98.3814 74.8352 97.6723C74.5216 96.9632 74.3883 96.1882 74.4472 95.4157C74.4472 93.6274 75.2645 91.8339 76.98 91.2687C78.5508 90.8467 80.1751 90.6551 81.8015 90.7C82.7821 90.7 83.2729 90.1304 83.2729 89.477C83.2729 88.7458 82.7005 88.2539 81.3116 88.2539C80.3759 88.2553 79.4435 88.3644 78.533 88.5789C78.1959 88.6122 77.8656 88.6943 77.5524 88.8227C77.0625 89.0664 76.2452 88.4164 75.9186 87.5996L75.1012 85.973C77.2224 84.9827 79.5411 84.4822 81.884 84.5088C83.373 84.516 84.8252 84.9693 86.0515 85.8096C86.6521 86.1971 87.146 86.7277 87.4884 87.3531C87.8309 87.9785 88.0112 88.6791 88.0128 89.3914V100.376C88.0128 100.376 83.7636 100.62 80.5768 100.62C79.0481 100.709 77.5307 100.31 76.2452 99.4823V99.4814Z" fill="#DFDFDF"/>
<path d="M215.328 94.0337C215.033 94.1011 214.731 94.1284 214.43 94.1149H212.959C211.896 94.1149 211.242 94.6836 211.242 95.4157C211.242 96.229 211.815 96.7165 213.204 96.7165H215.41L215.328 94.0337ZM208.464 99.4814C207.852 99.0027 207.367 98.3814 207.054 97.6723C206.74 96.9632 206.607 96.1882 206.666 95.4157C206.666 93.6274 207.483 91.8339 209.199 91.2687C210.77 90.8467 212.394 90.6551 214.02 90.7C215.001 90.7 215.491 90.1304 215.491 89.477C215.491 88.7458 214.919 88.2539 213.529 88.2539C212.594 88.2553 211.662 88.3644 210.751 88.5789C210.414 88.6121 210.084 88.6942 209.77 88.8227C209.28 89.0664 208.463 88.4164 208.054 87.5996L207.236 85.973C209.358 84.9828 211.676 84.4823 214.019 84.5088C215.509 84.5159 216.961 84.9692 218.188 85.8096C218.779 86.2009 219.261 86.7343 219.589 87.3605C219.918 87.9866 220.082 88.6852 220.067 89.3914V100.376C220.067 100.376 215.818 100.62 212.631 100.62C211.157 100.687 209.699 100.289 208.466 99.4823L208.464 99.4814Z" fill="#DFDFDF"/>
<path d="M178.555 100.621C176.754 100.67 174.992 100.095 173.57 98.9948C172.928 98.4604 172.418 97.7869 172.078 97.0258C171.738 96.2647 171.578 95.4363 171.609 94.6041V84.8469H176.35V94.6041C176.35 95.6611 177.086 96.2307 178.638 96.2307C179.554 96.1832 180.46 96.0194 181.334 95.7433V84.7656H186.075V98.8305C185.827 98.8323 181.252 100.621 178.555 100.621Z" fill="#DFDFDF"/>
<path d="M118.74 100.209L115.472 93.8665C114.986 93.9743 114.496 94.0556 114.001 94.1102H113.756V100.209H109.016V84.7593H109.833C112.53 84.7593 113.592 85.9823 113.592 88.0117V89.6383H114.821C115.312 89.6383 115.557 89.3946 116.05 88.825C116.498 88.0398 116.99 87.2798 117.522 86.5484C117.874 85.9471 118.392 85.459 119.014 85.1418C119.637 84.8247 120.337 84.6919 121.033 84.7593H124.057L119.235 91.9961L124.793 100.208L118.74 100.209Z" fill="#DFDFDF"/>
<path d="M164.418 90.9436C164.336 90.374 164.09 89.3991 163.437 89.0733C162.882 88.6312 162.187 88.4005 161.476 88.4224C160.785 88.4486 160.112 88.6442 159.516 88.992C158.936 89.4586 158.556 90.1268 158.453 90.8615C159.189 90.7803 159.682 90.6178 160.006 90.6178H162.784C163.301 90.8359 163.857 90.9465 164.419 90.9427L164.418 90.9436ZM167.686 93.5452C166.959 94.0078 166.094 94.2088 165.235 94.1148H160.251C159.639 94.092 159.034 93.9826 158.453 93.7898V94.0335C158.531 94.5801 158.765 95.0928 159.127 95.511C159.489 95.9291 159.964 96.235 160.496 96.3922C161.321 96.62 162.173 96.7294 163.029 96.7172C163.629 96.7308 164.23 96.7036 164.827 96.636C165.332 96.5752 165.843 96.6668 166.294 96.8987C166.746 97.1307 167.117 97.4923 167.36 97.9368L168.095 99.5634C166.494 100.122 164.807 100.398 163.111 100.377C160.824 100.468 158.565 99.8422 156.655 98.5876C154.694 97.2868 153.713 95.1727 153.713 92.4078C153.648 91.2956 153.809 90.1818 154.189 89.1336C154.568 88.0854 155.157 87.1246 155.92 86.3092C157.33 85.0083 159.166 84.2589 161.088 84.1992C163.011 84.1395 164.89 84.7734 166.379 85.9842C167.094 86.6007 167.668 87.3623 168.063 88.2179C168.457 89.0734 168.663 90.0031 168.667 90.9445C168.749 92.4069 168.422 93.0577 167.686 93.5452Z" fill="#DFDFDF"/>
<path d="M146.28 100.212V92.7312C145.943 92.4252 145.506 92.2516 145.051 92.2428H140.31C140.081 92.2247 139.851 92.2593 139.638 92.344C139.425 92.4287 139.234 92.5612 139.081 92.7312V100.212H134.34V83.2177C134.34 81.1036 136.546 79.9653 137.772 79.9653H139.16V88.0959C139.566 88.0254 139.978 87.9981 140.39 88.0146H145.13C145.542 88.006 145.953 88.0332 146.36 88.0959V83.5427C146.36 81.9982 147.177 79.9609 149.791 79.9609H151.02V100.207L146.28 100.212Z" fill="#DFDFDF"/>
<path d="M100.767 100.216V94.6053C100.431 94.2994 99.9935 94.1261 99.5379 94.1179H97.0051C96.7762 94.0997 96.5463 94.1344 96.3331 94.2191C96.1199 94.3038 95.9293 94.4363 95.776 94.6062V100.216H91.0352V88.3434C91.0352 86.0668 92.3424 84.7616 94.222 84.7616H95.7742V89.9657C96.1795 89.8921 96.5918 89.8649 97.0032 89.8844H99.536C99.9473 89.8758 100.359 89.903 100.765 89.9657V88.0953C100.721 87.6606 100.772 87.2216 100.915 86.8083C101.057 86.3951 101.287 86.0172 101.59 85.7007C101.892 85.3842 102.26 85.1364 102.668 84.9743C103.076 84.8122 103.514 84.7397 103.952 84.7616H105.504V100.211L100.767 100.216Z" fill="#DFDFDF"/>
<path d="M181.578 82.7305C178.75 83.2338 175.838 82.9524 173.16 81.9172C173.354 81.3796 173.601 80.8623 173.896 80.3726C174.304 79.4781 175.53 79.1496 176.756 79.3968C178.921 79.7788 181.148 79.5826 183.211 78.8281C183.405 79.3655 183.652 79.8829 183.946 80.3726C184.192 81.1851 183.293 82.4055 181.578 82.7305Z" fill="#DFDFDF"/>
<path d="M198.82 95.7383C198.422 95.9591 197.963 96.0447 197.512 95.982H194.08V94.3554C194.424 94.2355 194.78 94.1538 195.142 94.1117H198.002C198.493 94.1117 199.064 94.1117 199.231 94.4366C199.313 94.5179 199.312 94.7616 199.312 95.0062C199.312 95.2508 199.067 95.4946 198.822 95.7374L198.82 95.7383ZM197.921 89.1522C198.492 89.1522 198.738 89.396 198.738 89.721C198.792 89.9033 198.797 90.0962 198.754 90.2812C198.711 90.4662 198.621 90.6372 198.493 90.778C198.089 90.7012 197.676 90.6739 197.264 90.6968H194.813C194.484 90.6866 194.155 90.7139 193.832 90.778V89.1514L197.921 89.1522ZM201.924 92.1609C202.436 91.7729 202.845 91.2664 203.116 90.6855C203.386 90.1046 203.511 89.4667 203.477 88.8273C203.5 87.7787 203.12 86.7611 202.415 85.9811C202.067 85.5912 201.639 85.2802 201.16 85.0692C200.681 84.8582 200.161 84.7521 199.637 84.7581H189.422V100.208H198.982C200.27 100.197 201.513 99.7369 202.494 98.9068C202.997 98.5106 203.399 98.0026 203.669 97.4237C203.939 96.8447 204.068 96.211 204.047 95.5732C203.968 94.5188 203.068 92.4841 201.924 92.1609Z" fill="#DFDFDF"/>
<path d="M69.9545 89.2307C71.1564 90.3853 71.8597 91.9599 71.9158 93.6214C71.9163 94.5319 71.7195 95.4318 71.3387 96.2598C70.958 97.0878 70.4023 97.8243 69.7096 98.4192C68.2916 99.6018 66.4931 100.237 64.6431 100.208H55V79.9609H70.526C70.526 79.9609 70.2811 84.2704 66.6035 84.2704H59.6582V95.8167H64.6431C65.3375 95.814 66.0172 95.6169 66.6044 95.248C66.845 95.0894 67.0396 94.8706 67.1687 94.6137C67.2978 94.3568 67.3569 94.0706 67.3401 93.7839C67.393 93.4354 67.3528 93.0793 67.2237 92.7511C67.0946 92.423 66.881 92.1344 66.6044 91.9144C65.8695 91.1832 65.1338 91.3448 64.0716 90.9386C61.3755 90.2065 62.0286 87.1174 62.0286 87.1174C62.0286 87.1174 67.4208 86.6282 69.9545 89.2307Z" fill="#DFDFDF"/>
</g>
<defs>
<clipPath id="clip0_183_1137">
<rect width="219" height="39" fill="white" transform="translate(55 73)"/>
</clipPath>
</defs>
</svg>
